<svg width="77" height="76" viewBox="0 0 77 76" fill="none" xmlns="http://www.w3.org/2000/svg">
<ellipse opacity="0.24" cx="38.5" cy="38" rx="38.5" ry="38" fill="#72BFB2"/>
<path fill-rule="evenodd" clip-rule="evenodd" d="M34 23C34 22.4477 34.4477 22 35 22H41C41.5523 22 42 22.4477 42 23V52C42 52.5523 41.5523 53 41 53H35C34.4477 53 34 52.5523 34 52V23ZM23 35C23 34.4477 23.4477 34 24 34H30C30.5523 34 31 34.4477 31 35V52C31 52.5523 30.5523 53 30 53H24C23.4477 53 23 52.5523 23 52V35ZM46 29C45.4477 29 45 29.4477 45 30V52C45 52.5523 45.4477 53 46 53H52C52.5523 53 53 52.5523 53 52V30C53 29.4477 52.5523 29 52 29H46Z" fill="#72BFB2"/>
</svg>
