<svg width="80" height="80" viewBox="0 0 80 80" fill="none" xmlns="http://www.w3.org/2000/svg">
<circle cx="40" cy="40" r="40" fill="#F5F5F5"/>
<path d="M36.4839 20.5C35.6554 20.5 34.9839 21.1716 34.9839 22H35.9839C35.9839 21.7239 36.2077 21.5 36.4839 21.5V20.5ZM44.2903 20.5H36.4839V21.5H44.2903V20.5ZM45.7903 22C45.7903 21.1716 45.1188 20.5 44.2903 20.5V21.5C44.5665 21.5 44.7903 21.7239 44.7903 22H45.7903ZM45.7903 58V22H44.7903V58H45.7903ZM44.2903 59.5C45.1187 59.5 45.7903 58.8284 45.7903 58H44.7903C44.7903 58.2761 44.5665 58.5 44.2903 58.5V59.5ZM36.4839 59.5H44.2903V58.5H36.4839V59.5ZM34.9839 58C34.9839 58.8284 35.6554 59.5 36.4839 59.5V58.5C36.2077 58.5 35.9839 58.2761 35.9839 58H34.9839ZM34.9839 22V58H35.9839V22H34.9839ZM23 35.2097C22.1716 35.2097 21.5 35.8812 21.5 36.7097H22.5C22.5 36.4335 22.7239 36.2097 23 36.2097V35.2097ZM30.8065 35.2097H23V36.2097H30.8065V35.2097ZM32.3065 36.7097C32.3065 35.8813 31.6349 35.2097 30.8065 35.2097V36.2097C31.0826 36.2097 31.3065 36.4335 31.3065 36.7097H32.3065ZM32.3065 58V36.7097H31.3065V58H32.3065ZM30.8065 59.5C31.6349 59.5 32.3065 58.8284 32.3065 58H31.3065C31.3065 58.2761 31.0826 58.5 30.8065 58.5V59.5ZM23 59.5H30.8065V58.5H23V59.5ZM21.5 58C21.5 58.8284 22.1716 59.5 23 59.5V58.5C22.7239 58.5 22.5 58.2761 22.5 58H21.5ZM21.5 36.7097V58H22.5V36.7097H21.5ZM49.4677 30.5806C49.4677 30.3045 49.6916 30.0806 49.9677 30.0806V29.0806C49.1393 29.0806 48.4677 29.7522 48.4677 30.5806H49.4677ZM49.4677 58V30.5806H48.4677V58H49.4677ZM49.9677 58.5C49.6916 58.5 49.4677 58.2761 49.4677 58H48.4677C48.4677 58.8284 49.1393 59.5 49.9677 59.5V58.5ZM57.7742 58.5H49.9677V59.5H57.7742V58.5ZM58.2742 58C58.2742 58.2761 58.0503 58.5 57.7742 58.5V59.5C58.6026 59.5 59.2742 58.8284 59.2742 58H58.2742ZM58.2742 30.5806V58H59.2742V30.5806H58.2742ZM57.7742 30.0806C58.0503 30.0806 58.2742 30.3045 58.2742 30.5806H59.2742C59.2742 29.7522 58.6026 29.0806 57.7742 29.0806V30.0806ZM49.9677 30.0806H57.7742V29.0806H49.9677V30.0806Z" fill="black"/>
</svg>
