<svg width="18" height="11" viewBox="0 0 18 11" fill="none" xmlns="http://www.w3.org/2000/svg">
<path d="M9.05759 11C8.81938 11.0014 8.58324 10.9551 8.36271 10.864C8.14218 10.7728 7.9416 10.6385 7.77247 10.4687L0.532317 3.14035C0.19148 2.79536 0 2.32746 0 1.83957C0 1.35169 0.19148 0.883786 0.532317 0.538798C0.873154 0.193811 1.33543 0 1.81744 0C2.29946 0 2.76173 0.193811 3.10257 0.538798L9.05759 6.58466L15.0126 0.557119C15.3589 0.256977 15.8043 0.100139 16.2598 0.117949C16.7154 0.135759 17.1475 0.326905 17.4699 0.653188C17.7922 0.979471 17.9811 1.41686 17.9986 1.87795C18.0162 2.33904 17.8613 2.78987 17.5648 3.14035L10.3246 10.4687C9.98748 10.8071 9.53244 10.9979 9.05759 11Z" fill="white"/>
</svg>
