<svg width="7" height="10" viewBox="0 0 7 10" fill="none" xmlns="http://www.w3.org/2000/svg">
<path d="M0.344 9.62877C0.258667 9.62877 0.184 9.6021 0.12 9.54877C0.056 9.48477 0.024 9.39943 0.024 9.29277V8.09277C0.024 7.93277 0.0613334 7.81543 0.136 7.74077C0.210667 7.65543 0.306667 7.58077 0.424 7.51677L4.312 4.89277L0.424 2.28477C0.306667 2.2101 0.210667 2.13543 0.136 2.06077C0.0613334 1.97543 0.024 1.8581 0.024 1.70877V0.492765C0.024 0.386099 0.056 0.306099 0.12 0.252765C0.184 0.199431 0.258667 0.172765 0.344 0.172765C0.397333 0.172765 0.456 0.188765 0.52 0.220765C0.584 0.242098 0.637333 0.268765 0.68 0.300765L6.072 3.99677C6.232 4.10343 6.34933 4.2101 6.424 4.31677C6.49867 4.41277 6.536 4.54077 6.536 4.70077V5.08477C6.536 5.24477 6.49867 5.3781 6.424 5.48477C6.34933 5.59143 6.232 5.6981 6.072 5.80477L0.68 9.50077C0.637333 9.5221 0.584 9.54877 0.52 9.58077C0.456 9.61277 0.397333 9.62877 0.344 9.62877Z" fill="black"/>
</svg>
