<svg width="82" height="82" viewBox="0 0 82 82" fill="none" xmlns="http://www.w3.org/2000/svg">
<circle cx="41" cy="41" r="41" fill="#235784"/>
<path d="M48.9464 43.875C46.3571 43.875 45.1964 45.3125 41 45.3125C36.7143 45.3125 35.5536 43.875 32.9643 43.875C26.3571 43.875 21 49.3555 21 56.0039V59.6875C21 62.1133 22.875 64 25.2857 64H56.7143C59.0357 64 61 62.1133 61 59.6875V56.0039C61 49.3555 55.5536 43.875 48.9464 43.875ZM58.1429 59.6875C58.1429 60.4961 57.4286 61.125 56.7143 61.125H25.2857C24.4821 61.125 23.8571 60.4961 23.8571 59.6875V56.0039C23.8571 50.8828 27.875 46.75 32.9643 46.75C34.75 46.75 36.4464 48.1875 41 48.1875C45.4643 48.1875 47.25 46.75 48.9464 46.75C54.0357 46.75 58.1429 50.8828 58.1429 56.0039V59.6875ZM41 41C47.25 41 52.4286 35.8789 52.4286 29.5C52.4286 23.2109 47.25 18 41 18C34.6607 18 29.5714 23.2109 29.5714 29.5C29.5714 35.8789 34.6607 41 41 41ZM41 20.875C45.6429 20.875 49.5714 24.8281 49.5714 29.5C49.5714 34.2617 45.6429 38.125 41 38.125C36.2679 38.125 32.4286 34.2617 32.4286 29.5C32.4286 24.8281 36.2679 20.875 41 20.875Z" fill="white" fill-opacity="0.7"/>
</svg>
