<svg width="80" height="80" viewBox="0 0 80 80" fill="none" xmlns="http://www.w3.org/2000/svg">
<circle cx="40" cy="40" r="40" fill="#F5F5F5"/>
<path d="M47.8153 42.8586C45.2892 42.8586 44.1568 44.2611 40.0627 44.2611C35.8815 44.2611 34.7491 42.8586 32.223 42.8586C25.777 42.8586 20.5505 48.2054 20.5505 54.6917V58.2855C20.5505 60.6521 22.3798 62.4928 24.7317 62.4928H55.3937C57.6586 62.4928 59.5749 60.6521 59.5749 58.2855V54.6917C59.5749 48.2054 54.2613 42.8586 47.8153 42.8586ZM56.7875 58.2855C56.7875 59.0744 56.0906 59.6879 55.3937 59.6879H24.7317C23.9477 59.6879 23.338 59.0744 23.338 58.2855V54.6917C23.338 49.6955 27.2579 45.6635 32.223 45.6635C33.9652 45.6635 35.6202 47.066 40.0627 47.066C44.4181 47.066 46.1603 45.6635 47.8153 45.6635C52.7805 45.6635 56.7875 49.6955 56.7875 54.6917V58.2855ZM40.0627 40.0538C46.1603 40.0538 51.2126 35.0576 51.2126 28.8343C51.2126 22.6986 46.1603 17.6147 40.0627 17.6147C33.8781 17.6147 28.9129 22.6986 28.9129 28.8343C28.9129 35.0576 33.8781 40.0538 40.0627 40.0538ZM40.0627 20.4196C44.5924 20.4196 48.4251 24.2763 48.4251 28.8343C48.4251 33.4798 44.5924 37.2489 40.0627 37.2489C35.446 37.2489 31.7004 33.4798 31.7004 28.8343C31.7004 24.2763 35.446 20.4196 40.0627 20.4196Z" fill="black"/>
<circle cx="54.5456" cy="56.9696" r="9.69697" fill="#F5F5F5" stroke="black" stroke-width="2.42424"/>
<path fill-rule="evenodd" clip-rule="evenodd" d="M54.6802 62.9969C54.4297 62.9969 54.2267 62.7938 54.2267 62.5433L54.2267 51.6577C54.2267 51.4072 54.4297 51.2041 54.6802 51.2041C54.9307 51.2041 55.1338 51.4072 55.1338 51.6577L55.1338 62.5433C55.1338 62.7938 54.9307 62.9969 54.6802 62.9969Z" fill="black"/>
<path fill-rule="evenodd" clip-rule="evenodd" d="M48.7836 57.1001C48.7836 56.8496 48.9867 56.6466 49.2372 56.6466L60.1228 56.6466C60.3733 56.6466 60.5764 56.8496 60.5764 57.1001C60.5764 57.3506 60.3733 57.5537 60.1228 57.5537L49.2372 57.5537C48.9867 57.5537 48.7836 57.3506 48.7836 57.1001Z" fill="black"/>
</svg>
