<svg width="23" height="24" viewBox="0 0 23 24" fill="none" xmlns="http://www.w3.org/2000/svg">
<path d="M16.926 -0.000244141H6.07447C2.66824 -0.000244141 0.000244141 2.78376 0.000244141 6.33808V17.6614C0.000244141 21.2158 2.66824 23.9998 6.07447 23.9998H16.926C20.3322 23.9998 23.0002 21.2158 23.0002 17.6614V6.33808C23.0002 2.78376 20.3315 -0.000244141 16.926 -0.000244141ZM21.5164 17.6614C21.5164 20.3479 19.4998 22.4514 16.926 22.4514H6.07447C3.5007 22.4514 1.48412 20.3471 1.48412 17.6614V6.33808C1.48412 3.6524 3.5007 1.54814 6.07447 1.54814H16.926C19.5005 1.54814 21.5164 3.6524 21.5164 6.33808V17.6614Z" fill="white"/>
<path d="M18.7329 6.12741C18.4948 5.94548 18.1757 5.92999 17.9213 6.08483C17.6675 6.24045 17.1051 6.31709 16.654 6.37903C16.5606 6.39219 16.4686 6.40458 16.3795 6.41774C15.7481 5.87116 14.9416 5.56458 14.1099 5.56458C12.2366 5.56458 10.6993 7.07735 10.5902 8.98032C8.89116 8.68148 7.33533 7.75709 6.23281 6.36819C6.06884 6.1607 5.81436 6.05929 5.55765 6.09412C5.30242 6.13129 5.08429 6.30393 4.98117 6.55012C4.93368 6.66316 4.51968 7.72613 4.51968 10.3553C4.51968 12.6322 6.24171 14.3052 7.42287 15.1855C6.61491 15.5687 5.68378 15.7096 4.79939 15.6074C4.45365 15.5687 4.13017 15.7808 4.01591 16.1207C3.90165 16.4614 4.02778 16.8392 4.3201 17.0319C5.71494 17.9501 7.32716 18.4356 8.98316 18.4356C14.3014 18.4356 17.5199 14.0761 17.6393 9.77774C17.7922 9.54626 18.0837 9.09567 18.5764 8.30522C18.7737 7.98703 18.9392 7.30109 19.0201 6.92096C19.0846 6.62058 18.9711 6.30858 18.7329 6.12741ZM16.3009 9.074C16.2096 9.20561 16.1599 9.36509 16.1599 9.52767C16.1599 12.5834 13.9334 16.8872 8.98391 16.8872C8.53652 16.8872 8.09284 16.8446 7.65807 16.761C8.23826 16.5318 8.78655 16.2121 9.29033 15.8072C9.49213 15.6454 9.59971 15.3852 9.57597 15.1212C9.55223 14.8572 9.40013 14.6234 9.17236 14.5034C9.14045 14.4864 6.00429 12.7654 6.00429 10.3561C6.00429 9.54858 6.04584 8.91374 6.10075 8.43064C7.55716 9.73903 9.41052 10.5217 11.3611 10.6224C11.3759 10.6232 11.3915 10.6239 11.4056 10.6232C11.8374 10.61 12.1549 10.2794 12.1549 9.84897C12.1549 9.74213 12.1342 9.64071 12.0963 9.5478C12.0778 9.43167 12.0681 9.31477 12.0681 9.19787C12.0681 8.04819 12.9837 7.11296 14.1099 7.11296C14.6753 7.11296 15.2191 7.35451 15.6027 7.7749C15.7778 7.96535 16.0338 8.05129 16.2808 8.00096C16.4493 7.96767 16.6436 7.94135 16.8477 7.91348C16.9204 7.90342 16.9938 7.89335 17.0688 7.88251C16.5116 8.76819 16.3105 9.06006 16.3009 9.074Z" fill="white"/>
</svg>
