<svg width="23" height="24" viewBox="0 0 23 24" fill="none" xmlns="http://www.w3.org/2000/svg">
<path d="M3.36938 24H10.8713V15.4688H8.17603V12.6562H10.8713V9.14062C10.8713 7.20209 12.3827 5.625 14.2405 5.625H17.6096V8.4375H14.9143C14.1712 8.4375 13.5667 9.0683 13.5667 9.84375V12.6562H17.488L17.0388 15.4688H13.5667V24H19.6311C21.4889 24 23.0002 22.4229 23.0002 20.4844V3.51562C23.0002 1.57709 21.4889 0 19.6311 0H3.36938C1.51162 0 0.000244141 1.57709 0.000244141 3.51562V20.4844C0.000244141 22.4229 1.51162 24 3.36938 24ZM1.3479 3.51562C1.3479 2.35254 2.25476 1.40625 3.36938 1.40625H19.6311C20.7457 1.40625 21.6526 2.35254 21.6526 3.51562V20.4844C21.6526 21.6475 20.7457 22.5938 19.6311 22.5938H14.9143V16.875H18.1804L19.0789 11.25H14.9143V9.84375H18.9573V4.21875H14.2405C11.6396 4.21875 9.52368 6.42664 9.52368 9.14062V11.25H6.82837V16.875H9.52368V22.5938H3.36938C2.25476 22.5938 1.3479 21.6475 1.3479 20.4844V3.51562Z" fill="white"/>
</svg>
