<svg width="23" height="24" viewBox="0 0 23 24" fill="none" xmlns="http://www.w3.org/2000/svg">
<path d="M16.6951 0.00012207H6.30534C2.8287 0.00012207 0.000244141 2.95156 0.000244141 6.5794V17.4209C0.000244141 21.0487 2.8287 24.0001 6.30534 24.0001H16.6951C20.1718 24.0001 23.0002 21.0487 23.0002 17.4209V6.5794C23.0002 2.95156 20.1718 0.00012207 16.6951 0.00012207ZM21.642 17.4209C21.642 20.2672 19.4229 22.5828 16.6951 22.5828H6.30534C3.57764 22.5828 1.3585 20.2672 1.3585 17.4209V6.5794C1.3585 3.73306 3.57764 1.41743 6.30534 1.41743H16.6951C19.4229 1.41743 21.642 3.73306 21.642 6.5794V17.4209Z" fill="white"/>
<path d="M11.5006 5.4176C8.02208 5.4176 5.19214 8.37059 5.19214 12.0003C5.19214 15.63 8.02204 18.583 11.5006 18.583C14.979 18.583 17.809 15.63 17.809 12.0003C17.809 8.37054 14.979 5.4176 11.5006 5.4176ZM11.5006 17.1657C8.77102 17.1657 6.55035 14.8485 6.55035 12.0003C6.55035 9.15204 8.77102 6.83482 11.5006 6.83482C14.2302 6.83482 16.4508 9.15209 16.4508 12.0003C16.4508 14.8485 14.2302 17.1657 11.5006 17.1657Z" fill="white"/>
<path d="M18.1862 3.02356C17.1293 3.02356 16.2695 3.92079 16.2695 5.02358C16.2695 6.12636 17.1293 7.02354 18.1862 7.02354C19.243 7.02354 20.1028 6.12631 20.1028 5.02353C20.1028 3.92075 19.243 3.02356 18.1862 3.02356ZM18.1862 5.60618C17.8783 5.60618 17.6278 5.34481 17.6278 5.02353C17.6278 4.70225 17.8783 4.44087 18.1862 4.44087C18.4941 4.44087 18.7445 4.70229 18.7445 5.02353C18.7445 5.34476 18.4941 5.60618 18.1862 5.60618Z" fill="white"/>
</svg>
