<svg width="26" height="26" viewBox="0 0 26 26" fill="none" xmlns="http://www.w3.org/2000/svg">
<path d="M23.9009 15.0896H18.8039C18.6951 11.5653 15.7961 8.73145 12.2461 8.73145C8.69604 8.73145 5.79708 11.5653 5.68825 15.0896H0.734983C0.505404 15.0896 0.31958 15.2757 0.31958 15.505C0.31958 15.7343 0.505404 15.9204 0.734983 15.9204H23.9009C24.1302 15.9204 24.3163 15.7343 24.3163 15.505C24.3163 15.2757 24.1302 15.0896 23.9009 15.0896ZM12.2458 9.56197C15.3375 9.56197 17.8587 12.0239 17.9678 15.0893H6.52404C6.63315 12.0239 9.15437 9.56197 12.2458 9.56197Z" fill="#FFF279"/>
<path d="M19.7361 19.4413H4.39697C4.16739 19.4413 3.98157 19.6274 3.98157 19.8567C3.98157 20.086 4.16739 20.2721 4.39697 20.2721H19.7361C19.9654 20.2721 20.1515 20.086 20.1515 19.8567C20.1515 19.6274 19.9654 19.4413 19.7361 19.4413Z" fill="#FFF279"/>
<path d="M15.336 23.8361H9.17224C8.94266 23.8361 8.75684 24.0222 8.75684 24.2515C8.75684 24.4808 8.94266 24.6669 9.17224 24.6669H15.336C15.5653 24.6669 15.7514 24.4808 15.7514 24.2515C15.7514 24.0222 15.5656 23.8361 15.336 23.8361Z" fill="#FFF279"/>
<path d="M12.4524 7.80816C12.682 7.80816 12.8678 7.62234 12.8678 7.39276V2.4154C12.8678 2.18582 12.682 2 12.4524 2C12.2228 2 12.037 2.18582 12.037 2.4154V7.39276C12.037 7.62234 12.2228 7.80816 12.4524 7.80816Z" fill="#FFF279"/>
<path d="M15.6408 8.26579C15.687 8.28241 15.7346 8.29044 15.7812 8.29044C15.9515 8.29044 16.1113 8.18493 16.1722 8.01516L17.7408 3.64679C17.818 3.43078 17.7059 3.19289 17.4901 3.11563C17.2738 3.03808 17.036 3.15024 16.9587 3.36625L15.3901 7.73463C15.3126 7.95036 15.425 8.18825 15.6408 8.26579Z" fill="#FFF279"/>
<path d="M18.4923 10.1842C18.6083 10.1842 18.7235 10.1361 18.8058 10.0419L22.1703 6.18336C22.3209 6.01028 22.3029 5.74802 22.1301 5.59737C21.9565 5.44644 21.6948 5.46472 21.5438 5.63752L18.1793 9.49579C18.0287 9.66887 18.0467 9.93113 18.2195 10.0818C18.2984 10.1505 18.3954 10.1842 18.4923 10.1842Z" fill="#FFF279"/>
<path d="M25.0795 10.3283C24.9762 10.1233 24.7264 10.0408 24.5214 10.1444L20.132 12.3582C19.9274 12.4615 19.8451 12.7113 19.9484 12.9162C20.0215 13.0611 20.1677 13.1447 20.3195 13.1447C20.3826 13.1447 20.4463 13.1303 20.5064 13.1001L24.8959 10.8863C25.1005 10.7827 25.1828 10.5329 25.0795 10.3283Z" fill="#FFF279"/>
<path d="M8.78803 8.01494C8.84896 8.18442 9.00847 8.29021 9.17907 8.29021C9.22559 8.29021 9.27295 8.28218 9.31947 8.26557C9.53548 8.18802 9.64764 7.95014 9.5701 7.7344L7.92012 3.13949C7.84258 2.92348 7.60414 2.81105 7.38896 2.88887C7.17295 2.96641 7.06079 3.2043 7.13833 3.42003L8.78803 8.01494Z" fill="#FFF279"/>
<path d="M6.14227 10.0267C6.22424 10.1303 6.34554 10.184 6.46794 10.184C6.5585 10.184 6.64934 10.1546 6.72577 10.094C6.9055 9.95136 6.93569 9.69021 6.79307 9.51048L3.62299 5.51375C3.48009 5.33374 3.21894 5.30355 3.03949 5.44645C2.85975 5.58908 2.82957 5.85023 2.97219 6.02996L6.14227 10.0267Z" fill="#FFF279"/>
<path d="M4.64065 13.1446C4.79324 13.1446 4.94057 13.0599 5.01285 12.9139C5.11504 12.7084 5.03113 12.4592 4.82564 12.357L0.600442 10.2581C0.395233 10.1559 0.145438 10.2396 0.0435256 10.4453C-0.0586636 10.6508 0.0252479 10.9 0.230734 11.0022L4.45594 13.1009C4.51548 13.1305 4.57834 13.1446 4.64065 13.1446Z" fill="#FFF279"/>
</svg>
