<svg width="30" height="14" viewBox="0 0 30 14" fill="none" xmlns="http://www.w3.org/2000/svg">
<path d="M1.00049 11.4842L29.2247 11.4649M3.56785 13.4527L3.56738 12.7292M26.6596 13.4369L26.6592 12.7134M28.356 12.7076L1.87246 12.7231C1.39165 12.7234 1.00168 12.286 1.00142 11.7461L1.0009 10.6122C1.00064 10.0723 1.39021 9.63442 1.87102 9.63414L28.3545 9.61857C28.8353 9.61829 29.2253 10.0557 29.2256 10.5956L29.2261 11.7295C29.2264 12.2694 28.8368 12.7073 28.356 12.7076ZM29.2242 10.1801L25.711 5.38461C25.711 4.97076 24.7485 4.63333 23.5358 4.61149V4.83132C23.5358 5.25956 22.7722 5.60741 21.8296 5.60841L17.268 5.61138C16.3254 5.61138 15.5609 5.26403 15.5609 4.83678V4.61447H14.6576V4.83579C14.6576 5.26403 13.894 5.61188 12.9509 5.61287L8.38938 5.61486C7.44676 5.61486 6.68224 5.2675 6.68224 4.84025V4.62241C5.47005 4.64623 4.50754 4.98515 4.50798 5.3985L1 10.199C1.00038 10.235 1.00762 10.2705 1.02122 10.3032C1.00809 10.3402 1.0009 10.3795 1 10.4193V11.9576C1 12.3863 1.76453 12.7332 2.70759 12.7327L27.518 12.7153C28.461 12.7153 29.2251 12.3679 29.2247 11.9382V10.3999C29.224 10.3601 29.2168 10.3207 29.2035 10.2838C29.2169 10.2513 29.2239 10.2159 29.2242 10.1801ZM23.9831 1L6.23068 1.01241C5.28806 1.01241 4.52397 1.58405 4.52441 2.28819V5.11666C4.52496 5.17557 4.53088 5.23427 4.54209 5.29183C4.72682 4.71819 5.60271 4.27804 6.68011 4.24381V3.58333C6.68011 2.87919 7.44375 2.30755 8.38637 2.30705L12.9475 2.30407C13.8901 2.30407 14.655 2.87374 14.655 3.57788V4.23289H15.5588V3.57738C15.5588 2.87324 16.3224 2.30159 17.265 2.30109L21.8266 2.29812C22.7692 2.29812 23.5337 2.86778 23.5341 3.57192V4.22991C24.6093 4.26266 25.4879 4.70132 25.673 5.27496C25.6844 5.21742 25.6905 5.15872 25.6912 5.09979V2.2738C25.6903 1.56966 24.9258 1 23.9831 1ZM13.7871 5.86609L7.55338 5.86975C7.07256 5.87003 6.68259 5.4326 6.68233 4.89271L6.68158 3.27998C6.68133 2.74009 7.0709 2.3022 7.55171 2.30191L13.7855 2.29825C14.2663 2.29797 14.6563 2.7354 14.6565 3.27529L14.6573 4.88802C14.6575 5.42791 14.2679 5.8658 13.7871 5.86609ZM22.6655 5.85879L16.4318 5.86245C15.951 5.86273 15.561 5.42529 15.5608 4.8854L15.56 3.27268C15.5597 2.73279 15.9493 2.2949 16.4301 2.29461L22.6639 2.29095C23.1447 2.29066 23.5347 2.7281 23.5349 3.26799L23.5357 4.88072C23.5359 5.42061 23.1464 5.8585 22.6655 5.85879Z" stroke="#235784" stroke-linecap="round" stroke-linejoin="round"/>
</svg>
