<svg id="visual" viewBox="0 0 100 100" width="100" height="100" xmlns="http://www.w3.org/2000/svg" xmlns:xlink="http://www.w3.org/1999/xlink" version="1.1"><g transform="translate(49.947656249999994 50.052343750000006)"><path d="M17.7 -30.6C23 -27.5 27.5 -23 30.6 -17.7C33.7 -12.3 35.3 -6.2 35.4 0C35.5 6.2 34 12.5 30.9 17.8C27.8 23.2 23.2 27.6 17.7 30.7C12.3 33.7 6.2 35.3 0 35.3C-6.2 35.3 -12.3 33.7 -17.7 30.6C-23 27.5 -27.5 23 -30.6 17.7C-33.7 12.3 -35.3 6.2 -35.3 0C-35.3 -6.2 -33.7 -12.3 -30.7 -17.7C-27.6 -23.2 -23.2 -27.8 -17.8 -30.9C-12.5 -34 -6.3 -35.5 0 -35.4C6.2 -35.3 12.3 -33.7 17.7 -30.6" fill="#235784"></path></g></svg>