<svg width="20" height="21" viewBox="0 0 20 21" fill="none" xmlns="http://www.w3.org/2000/svg">
<path d="M19.2578 14.25L15 12.4141C14.8438 12.375 14.6875 12.3359 14.5312 12.3359C14.1406 12.3359 13.7891 12.4922 13.5938 12.7656L11.875 14.875C9.14062 13.5469 6.95312 11.3594 5.625 8.625L7.73438 6.90625C8.00781 6.71094 8.16406 6.35938 8.16406 5.96875C8.16406 5.8125 8.125 5.65625 8.08594 5.5L6.25 1.24219C6.05469 0.8125 5.625 0.5 5.15625 0.5C5.03906 0.5 4.96094 0.539062 4.88281 0.539062L0.9375 1.47656C0.390625 1.59375 0 2.0625 0 2.64844C0 12.5312 8.00781 20.5 17.8516 20.5C18.4375 20.5 18.9062 20.1094 19.0625 19.5625L19.9609 15.6172C19.9609 15.5391 19.9609 15.4609 19.9609 15.3438C19.9609 14.875 19.6875 14.4453 19.2578 14.25ZM17.8125 19.25C8.67188 19.25 1.25 11.8281 1.25 2.6875L5.11719 1.78906L6.91406 5.96875L4.0625 8.3125C5.97656 12.3359 8.16406 14.5234 12.2266 16.4375L14.5312 13.5859L18.7109 15.3828L17.8125 19.25Z" fill="black"/>
</svg>
