<svg width="77" height="76" viewBox="0 0 77 76" fill="none" xmlns="http://www.w3.org/2000/svg">
<ellipse opacity="0.24" cx="38.5" cy="38" rx="38.5" ry="38" fill="#EE8059"/>
<path fill-rule="evenodd" clip-rule="evenodd" d="M41.1819 36.8496H45.3336C45.9632 36.8496 46.4579 36.3291 46.4579 35.7015C46.4579 35.0586 45.9632 34.5535 45.3336 34.5535H41.1819C40.5524 34.5535 40.0578 35.0586 40.0578 35.7015C40.0578 36.3291 40.5524 36.8496 41.1819 36.8496ZM50.2649 28.8912C51.1791 28.8912 51.7787 29.2127 52.3782 29.9168C52.9778 30.621 53.0826 31.6313 52.9478 32.5482L51.5238 42.59C51.2541 44.5203 49.6353 45.9423 47.7318 45.9423H31.3796C29.3861 45.9423 27.7374 44.3825 27.5726 42.362L26.1936 25.6751L23.9304 25.2771C23.3309 25.17 22.9112 24.573 23.0161 23.9606C23.121 23.3346 23.7056 22.9197 24.3201 23.0131L27.8948 23.5626C28.4044 23.656 28.7791 24.0831 28.8241 24.6036L29.1089 28.0325C29.1538 28.5239 29.5435 28.8912 30.0231 28.8912H50.2649ZM31.1395 48.3618C29.8805 48.3618 28.8613 49.4027 28.8613 50.6885C28.8613 51.9591 29.8805 53 31.1395 53C32.3835 53 33.4027 51.9591 33.4027 50.6885C33.4027 49.4027 32.3835 48.3618 31.1395 48.3618ZM48.0014 48.3618C46.7423 48.3618 45.723 49.4027 45.723 50.6885C45.723 51.9591 46.7423 53 48.0014 53C49.2453 53 50.2646 51.9591 50.2646 50.6885C50.2646 49.4027 49.2453 48.3618 48.0014 48.3618Z" fill="#EE8059"/>
</svg>
