<svg width="23" height="23" viewBox="0 0 23 23" fill="none" xmlns="http://www.w3.org/2000/svg">
<path d="M11.322 0C5.07905 0 0 5.0796 0 11.3233C0 17.5682 5.07905 22.6483 11.322 22.6483C17.5662 22.6483 22.6461 17.5679 22.6461 11.3233C22.6464 5.0796 17.5662 0 11.322 0ZM11.322 21.8252C5.53285 21.8252 0.823096 17.1141 0.823096 11.3233C0.823096 5.5334 5.53285 0.823096 11.322 0.823096C17.1122 0.823096 21.823 5.5334 21.823 11.3233C21.8233 17.1141 17.1124 21.8252 11.322 21.8252Z" fill="#FFF279"/>
<path d="M13.4234 5.5191H6.90178C6.67461 5.5191 6.49023 5.7032 6.49023 5.93065V17.3454C6.49023 17.5725 6.67461 17.7569 6.90178 17.7569H10.1626C10.3898 17.7569 10.5742 17.5725 10.5742 17.3454V13.2483H13.4234C15.5544 13.2483 17.2882 11.5145 17.2882 9.38354C17.2882 7.25254 15.5544 5.5191 13.4234 5.5191ZM13.4234 12.4254H10.1626C9.93544 12.4254 9.75107 12.6098 9.75107 12.837V16.9341H7.31333V6.34247H13.4234C15.1006 6.34247 16.4651 7.70689 16.4651 9.38409C16.4651 11.0613 15.1009 12.4254 13.4234 12.4254Z" fill="#FFF279"/>
<path d="M13.4235 7.68414H10.1648C9.93767 7.68414 9.7533 7.86852 9.7533 8.09569V10.3063C9.7533 10.5334 9.93767 10.7178 10.1648 10.7178H13.4235C13.6507 10.7178 13.835 10.5334 13.835 10.3063V8.09569C13.835 7.86852 13.6509 7.68414 13.4235 7.68414ZM13.0119 9.89443H10.5764V8.50696H13.0119V9.89443Z" fill="#FFF279"/>
</svg>
