<svg width="26" height="26" viewBox="0 0 26 26" fill="none" xmlns="http://www.w3.org/2000/svg">
<path d="M23.8522 3.74573L19.7557 0.102001C19.6719 0.027156 19.5626 -0.00851242 19.4546 0.00172032C19.3458 0.0122454 19.245 0.0680869 19.1749 0.157258L17.3988 2.41986L16.0576 1.2276C15.882 1.07206 15.623 1.0975 15.4771 1.28315L12.8493 4.63072C12.7792 4.71989 12.7454 4.83508 12.7551 4.95115C12.7649 5.06692 12.8174 5.17393 12.9015 5.24848L16.2911 8.26159L9.96051 16.3247L6.57035 13.3101C6.48628 13.2359 6.37803 13.1993 6.26924 13.2098C6.16045 13.2201 6.0599 13.2765 5.98984 13.3654L3.36178 16.7127C3.2159 16.8986 3.23897 17.1752 3.4137 17.3304L4.75493 18.523L3.09584 20.6362C3.02578 20.7256 2.99199 20.8405 3.00161 20.9566C3.0115 21.0724 3.06397 21.1794 3.14776 21.2542L7.24536 24.898C7.31981 24.964 7.41349 25 7.50965 25C7.52173 25 7.5341 24.9994 7.54646 24.9982C7.65525 24.988 7.7558 24.9316 7.82586 24.8427L9.48495 22.7298L10.8385 23.9335C10.913 23.9995 11.0067 24.0355 11.1028 24.0355C11.1149 24.0355 11.1273 24.0349 11.1396 24.0337C11.2484 24.0235 11.349 23.9671 11.419 23.8782L14.0474 20.5309C14.1933 20.345 14.1699 20.0684 13.9955 19.9132L10.5929 16.8872L16.9235 8.82409L20.3272 11.8498C20.4016 11.9158 20.495 11.9518 20.5914 11.9518C20.6038 11.9518 20.6159 11.9512 20.6283 11.95C20.7371 11.9395 20.8379 11.8837 20.9079 11.7942L23.5354 8.44636C23.6813 8.26042 23.658 7.98384 23.4835 7.82859L22.1294 6.62493L23.9044 4.3632C24.05 4.17755 24.0267 3.90127 23.8522 3.74573ZM7.45745 23.9431L3.99256 20.8619L5.38736 19.0858L8.85225 22.1667L7.45745 23.9431ZM11.0506 22.9783L9.71682 21.7922C9.7105 21.7858 9.70556 21.7784 9.69869 21.7726C9.6921 21.7668 9.68441 21.7627 9.67754 21.7574L5.61703 18.1467C5.61154 18.1411 5.60714 18.1347 5.60137 18.1294C5.5956 18.1242 5.58874 18.121 5.58269 18.116L4.2585 16.9387L6.35825 14.2647L13.1507 20.3043L11.0506 22.9783ZM20.5395 10.8955L13.746 4.85642L15.8455 2.18188L22.639 8.22065L20.5395 10.8955ZM21.4967 6.06272L18.0315 2.98237L19.5434 1.05628L23.0074 4.13779L21.4967 6.06272Z" fill="#FFF279"/>
</svg>
