<svg width="23" height="17" viewBox="0 0 23 17" fill="none" xmlns="http://www.w3.org/2000/svg">
<path d="M11.1534 12.8725C10.0159 12.8725 9.09033 13.7984 9.09033 14.9362C9.09033 16.074 10.0159 16.9999 11.1534 16.9999C12.2925 16.9999 13.2193 16.074 13.2193 14.9362C13.2193 13.7984 12.2928 12.8725 11.1534 12.8725ZM11.1534 16.0901C10.5175 16.0901 10.0001 15.5724 10.0001 14.9362C10.0001 14.3 10.5175 13.7823 11.1534 13.7823C11.7909 13.7823 12.3095 14.3 12.3095 14.9362C12.3095 15.5724 11.7909 16.0901 11.1534 16.0901Z" fill="#FFF279"/>
<path d="M11.1535 7.96008C9.04641 7.96008 7.03972 8.9748 5.78482 10.6749C5.63561 10.8772 5.67868 11.1616 5.88065 11.3111C5.96192 11.3712 6.05654 11.4 6.15055 11.4C6.29005 11.4 6.42773 11.336 6.51689 11.2153C7.61683 9.72477 9.30691 8.87017 11.1535 8.87017C12.9179 8.87017 14.5609 9.6629 15.6609 11.0455C15.8174 11.2423 16.1033 11.2747 16.3001 11.1183C16.4967 10.9618 16.5291 10.6758 16.3729 10.479C15.0992 8.87776 13.1969 7.96008 11.1535 7.96008Z" fill="#FFF279"/>
<path d="M11.1535 3.74103C7.89646 3.74103 4.83442 5.18425 2.75312 7.70103C2.593 7.89451 2.6203 8.1814 2.81378 8.34152C2.89869 8.41158 3.0015 8.44585 3.10339 8.44585C3.2344 8.44585 3.3642 8.38944 3.45427 8.28087C5.3624 5.97395 8.16849 4.65082 11.1538 4.65082C14.0484 4.65082 16.7963 5.90481 18.6929 8.09103C18.8576 8.28057 19.1451 8.30089 19.3346 8.13652C19.5245 7.97185 19.5448 7.68466 19.3801 7.49481C17.3106 5.10935 14.3123 3.74103 11.1535 3.74103Z" fill="#FFF279"/>
<path d="M22.0491 4.86494C19.2752 1.77318 15.3039 0 11.1538 0C6.91598 0 2.89138 1.83626 0.11137 5.0378C-0.0533014 5.22734 -0.0329831 5.51483 0.156556 5.6795C0.242683 5.75441 0.348825 5.7908 0.454664 5.7908C0.581731 5.7908 0.708191 5.73773 0.79826 5.63402C3.40511 2.63171 7.17952 0.909485 11.1535 0.909485C15.0455 0.909485 18.7702 2.57258 21.3716 5.47207C21.5396 5.65919 21.8271 5.67465 22.0139 5.50695C22.201 5.33955 22.2168 5.05175 22.0491 4.86494Z" fill="#FFF279"/>
</svg>
