<svg width="26" height="26" viewBox="0 0 26 26" fill="none" xmlns="http://www.w3.org/2000/svg">
<path d="M20.594 5.1485H20.3752H20.3057H12.5984H12.534H12.3281C11.2016 5.1485 10.1212 5.596 9.32464 6.39257C8.52807 7.18914 8.08057 8.26951 8.08057 9.39602C8.08057 10.5225 8.52807 11.6029 9.32464 12.3995C10.1212 13.196 11.2016 13.6435 12.3281 13.6435C13.4711 13.6435 14.6449 13.0077 15.5614 11.8956C15.6693 11.7637 15.8052 11.6574 15.9592 11.5843C16.1133 11.5113 16.2816 11.4735 16.4521 11.4734V11.4734C16.6219 11.4733 16.7897 11.5109 16.9433 11.5835C17.0968 11.656 17.2324 11.7618 17.3402 11.8931C18.2618 13.0051 19.4433 13.6435 20.594 13.6435C21.7205 13.6435 22.8009 13.196 23.5975 12.3995C24.3941 11.6029 24.8416 10.5225 24.8416 9.39602C24.8416 8.26951 24.3941 7.18914 23.5975 6.39257C22.8009 5.596 21.7205 5.1485 20.594 5.1485V5.1485ZM20.594 12.8713C19.6802 12.8713 18.7148 12.3358 17.9425 11.4014C17.7625 11.1823 17.5362 11.0059 17.2798 10.8848C17.0234 10.7637 16.7433 10.701 16.4598 10.7012V10.7012C16.1754 10.7014 15.8947 10.7648 15.6378 10.8868C15.3809 11.0088 15.1543 11.1863 14.9744 11.4065C14.2022 12.3384 13.2497 12.8713 12.3384 12.8713C11.4167 12.8713 10.5328 12.5051 9.88102 11.8534C9.22928 11.2017 8.86314 10.3177 8.86314 9.39602C8.86314 8.47433 9.22928 7.59039 9.88102 6.93865C10.5328 6.28692 11.4167 5.92078 12.3384 5.92078C12.4233 5.92078 12.5083 5.92078 12.5958 5.92078C12.6342 5.92689 12.6733 5.92689 12.7117 5.92078H20.1873C20.2299 5.92788 20.2734 5.92788 20.316 5.92078C20.4061 5.92078 20.4988 5.92078 20.5889 5.92078C21.5106 5.92078 22.3945 6.28692 23.0463 6.93865C23.698 7.59039 24.0641 8.47433 24.0641 9.39602C24.0641 10.3177 23.698 11.2017 23.0463 11.8534C22.3945 12.5051 21.5106 12.8713 20.5889 12.8713H20.594Z" fill="#FFF279"/>
<path d="M19.7292 7.20795H19.5799H19.5232H14.802C14.6996 7.20795 14.6014 7.24863 14.529 7.32104C14.4566 7.39346 14.4159 7.49168 14.4159 7.59409C14.4159 7.6965 14.4566 7.79471 14.529 7.86713C14.6014 7.93954 14.6996 7.98022 14.802 7.98022H19.4357C19.4733 7.98568 19.5114 7.98568 19.549 7.98022C19.6107 7.98022 19.6725 7.98022 19.7343 7.98022C21.4951 7.98022 21.9276 8.56715 22.0357 9.44755C22.0481 9.53948 22.0931 9.62389 22.1626 9.68534C22.2321 9.74679 22.3214 9.78118 22.4141 9.7822H22.4604C22.5108 9.77615 22.5595 9.76022 22.6037 9.73533C22.648 9.71044 22.6868 9.67708 22.7182 9.63715C22.7495 9.59722 22.7726 9.55152 22.7863 9.50264C22.7999 9.45376 22.8038 9.40268 22.7977 9.3523C22.5608 7.42933 20.9339 7.20795 19.7292 7.20795Z" fill="#FFF279"/>
<path d="M17.8911 15.9604H13.2575C13.1551 15.9604 13.0568 16.0011 12.9844 16.0735C12.912 16.1459 12.8713 16.2441 12.8713 16.3466V18.406C12.8713 18.5084 12.912 18.6066 12.9844 18.679C13.0568 18.7514 13.1551 18.7921 13.2575 18.7921H14.0812C14.0272 20.7331 12.3359 22.2957 10.261 22.2957C8.18618 22.2957 6.43569 20.6816 6.43569 18.6994V4.50497C6.43569 4.40256 6.395 4.30435 6.32259 4.23193C6.25017 4.15952 6.15196 4.11884 6.04955 4.11884H3.99014C3.88773 4.11884 3.78952 4.15952 3.7171 4.23193C3.64469 4.30435 3.604 4.40256 3.604 4.50497V18.6634C3.604 22.1386 6.59014 24.9703 10.261 24.9703C13.883 24.9703 16.8357 22.2107 16.9155 18.7921H17.8911C17.9935 18.7921 18.0918 18.7514 18.1642 18.679C18.2366 18.6066 18.2773 18.5084 18.2773 18.406V16.3466C18.2773 16.2441 18.2366 16.1459 18.1642 16.0735C18.0918 16.0011 17.9935 15.9604 17.8911 15.9604V15.9604ZM10.261 24.198C7.0149 24.198 4.37628 21.7113 4.37628 18.6531V4.89111H5.66341V18.6994C5.66341 21.1089 7.72282 23.0757 10.261 23.0757C12.7993 23.0757 14.802 21.1578 14.8535 18.7921H16.1406C16.0634 21.786 13.4557 24.198 10.261 24.198ZM17.505 18.0198H13.6436V16.7327H17.505V18.0198Z" fill="#FFF279"/>
</svg>
