<svg width="26" height="26" viewBox="0 0 26 26" fill="none" xmlns="http://www.w3.org/2000/svg">
<path d="M18.354 12.5469C18.354 9.24573 15.6682 6.55994 12.3669 6.55994C9.06505 6.55994 6.37878 9.24573 6.37878 12.5469C6.37878 15.8482 9.06505 18.534 12.3669 18.534C15.6682 18.534 18.354 15.8482 18.354 12.5469ZM7.21409 12.5469C7.21409 9.70636 9.52568 7.39525 12.3669 7.39525C15.2076 7.39525 17.5187 9.70611 17.5187 12.5469C17.5187 15.3876 15.2076 17.6987 12.3669 17.6987C9.52568 17.6987 7.21409 15.3876 7.21409 12.5469Z" fill="#FFF279"/>
<path d="M12.3669 5.67082C12.5976 5.67082 12.7844 5.48398 12.7844 5.25329V2.12505C12.7844 1.89436 12.5976 1.70752 12.3669 1.70752C12.1362 1.70752 11.9493 1.89436 11.9493 2.12505V5.25329C11.9493 5.48398 12.1362 5.67082 12.3669 5.67082Z" fill="#FFF279"/>
<path d="M14.9906 6.15411C15.0399 6.17304 15.0905 6.18201 15.1403 6.18201C15.3082 6.18201 15.4664 6.08012 15.5302 5.9142L16.653 2.99398C16.7357 2.77874 16.6283 2.53709 16.4131 2.45413C16.1976 2.37093 15.9562 2.4788 15.8732 2.69404L14.7504 5.61426C14.668 5.82975 14.7753 6.0714 14.9906 6.15411Z" fill="#FFF279"/>
<path d="M17.8099 7.70066C17.926 7.70066 18.0416 7.65258 18.1241 7.55816L20.1853 5.20694C20.3373 5.03355 20.3201 4.76973 20.1464 4.61751C19.9733 4.46555 19.7092 4.48249 19.557 4.65638L17.4958 7.0076C17.3438 7.18099 17.361 7.44481 17.5346 7.59703C17.6139 7.66653 17.712 7.70066 17.8099 7.70066Z" fill="#FFF279"/>
<path d="M18.9152 9.66951C18.975 9.84215 19.1367 9.95052 19.3098 9.95052C19.3551 9.95052 19.4012 9.94305 19.4463 9.9276L22.4051 8.90296C22.6231 8.82747 22.7387 8.58956 22.6632 8.37183C22.5877 8.15385 22.3493 8.03825 22.1321 8.11374L19.1733 9.13813C18.955 9.21386 18.8395 9.45178 18.9152 9.66951Z" fill="#FFF279"/>
<path d="M23.0013 12.3777H19.8711C19.6405 12.3777 19.4536 12.5645 19.4536 12.7952C19.4536 13.0259 19.6405 13.2127 19.8711 13.2127H23.0013C23.232 13.2127 23.4191 13.0259 23.4191 12.7952C23.4191 12.5645 23.232 12.3777 23.0013 12.3777Z" fill="#FFF279"/>
<path d="M12.3669 19.4827C12.1362 19.4827 11.9493 19.6696 11.9493 19.9003V23.0287C11.9493 23.2594 12.1362 23.4463 12.3669 23.4463C12.5976 23.4463 12.7844 23.2594 12.7844 23.0287V19.9003C12.7844 19.6698 12.5976 19.4827 12.3669 19.4827Z" fill="#FFF279"/>
<path d="M15.5304 19.2393C15.4477 19.0241 15.2061 18.9162 14.9906 18.9994C14.7753 19.0824 14.668 19.3238 14.7507 19.5393L15.8735 22.4595C15.9372 22.6257 16.0957 22.7273 16.2633 22.7273C16.3132 22.7273 16.3637 22.7183 16.4131 22.6994C16.6283 22.6164 16.7357 22.375 16.653 22.1595L15.5304 19.2393Z" fill="#FFF279"/>
<path d="M18.124 17.5953C17.9718 17.4217 17.708 17.4048 17.5346 17.5565C17.3612 17.7084 17.3437 17.9723 17.4957 18.1459L19.5569 20.4976C19.6396 20.5918 19.755 20.6401 19.8711 20.6401C19.969 20.6401 20.0671 20.606 20.1461 20.5365C20.3195 20.3845 20.3369 20.1207 20.185 19.9471L18.124 17.5953Z" fill="#FFF279"/>
<path d="M22.4054 16.2508L19.4466 15.2257C19.2289 15.1502 18.991 15.2656 18.9152 15.4835C18.8397 15.7015 18.9551 15.9394 19.1731 16.0149L22.1319 17.0401C22.1772 17.0558 22.2233 17.0632 22.2686 17.0632C22.4418 17.0632 22.6034 16.9549 22.6632 16.7822C22.7387 16.5642 22.6234 16.3263 22.4054 16.2508Z" fill="#FFF279"/>
<path d="M9.5069 5.91447C9.57067 6.08038 9.72911 6.18228 9.89677 6.18228C9.94659 6.18228 9.99717 6.17331 10.0467 6.15437C10.262 6.07142 10.3694 5.82977 10.2866 5.61452L9.16361 2.6948C9.0809 2.47981 8.83975 2.37169 8.62376 2.4549C8.40852 2.53785 8.30115 2.7795 8.38386 2.99475L9.5069 5.91447Z" fill="#FFF279"/>
<path d="M6.91338 7.55866C6.99609 7.65283 7.11143 7.70116 7.22752 7.70116C7.32542 7.70116 7.42358 7.66703 7.50255 7.59752C7.67594 7.44556 7.69338 7.18174 7.54141 7.0081L5.47994 4.65637C5.32773 4.48274 5.06391 4.46579 4.89052 4.61751C4.71713 4.76948 4.69969 5.0333 4.85166 5.20694L6.91338 7.55866Z" fill="#FFF279"/>
<path d="M2.63202 8.90366L5.59083 9.92781C5.63617 9.94325 5.68225 9.95072 5.72734 9.95072C5.90048 9.95072 6.06216 9.84236 6.12195 9.66971C6.19744 9.45173 6.08184 9.21382 5.86386 9.13833L2.90506 8.11419C2.68708 8.0392 2.44917 8.15455 2.37368 8.37228C2.29845 8.59026 2.41404 8.82793 2.63202 8.90366Z" fill="#FFF279"/>
<path d="M5.58354 12.796C5.58354 12.5653 5.39645 12.3785 5.16577 12.3785H2.03557C1.80488 12.3785 1.61804 12.5653 1.61804 12.796C1.61804 13.0267 1.80488 13.2135 2.03557 13.2135H5.16577C5.39645 13.2135 5.58354 13.0264 5.58354 12.796Z" fill="#FFF279"/>
<path d="M10.0465 19.0002C9.83151 18.9172 9.58961 19.0248 9.50665 19.2401L8.38362 22.1606C8.30091 22.3758 8.40828 22.6174 8.62352 22.7004C8.67285 22.7193 8.72342 22.7283 8.77324 22.7283C8.94115 22.7283 9.09934 22.6264 9.16312 22.4605L10.2862 19.54C10.3694 19.3248 10.262 19.0831 10.0465 19.0002Z" fill="#FFF279"/>
<path d="M6.91336 17.5964L4.85189 19.9473C4.69992 20.1207 4.71711 20.3845 4.8905 20.5368C4.96972 20.6063 5.06787 20.6404 5.16578 20.6404C5.28187 20.6404 5.39746 20.5923 5.47992 20.4981L7.54139 18.1472C7.69336 17.9738 7.67617 17.71 7.50278 17.5577C7.32939 17.4058 7.06557 17.4225 6.91336 17.5964Z" fill="#FFF279"/>
<path d="M6.1222 15.4845C6.04672 15.2666 5.8093 15.1507 5.59082 15.2264L2.63202 16.2506C2.41404 16.3261 2.29845 16.564 2.37393 16.782C2.43372 16.9546 2.59565 17.063 2.76854 17.063C2.81388 17.063 2.85996 17.0555 2.90506 17.0401L5.86386 16.0159C6.08209 15.9404 6.19768 15.7025 6.1222 15.4845Z" fill="#FFF279"/>
</svg>
