<svg width="26" height="26" viewBox="0 0 26 26" fill="none" xmlns="http://www.w3.org/2000/svg">
<circle cx="13" cy="13" r="13" fill="white"/>
<path fill-rule="evenodd" clip-rule="evenodd" d="M4.27539 8.5523C4.27539 7.80393 4.88206 7.19727 5.63042 7.19727H13.4864C13.6824 7.19727 13.8413 7.35615 13.8413 7.55215C13.8413 7.74815 13.6824 7.90704 13.4864 7.90704H5.63042C5.27406 7.90704 4.98517 8.19593 4.98517 8.5523V19.7152C4.98517 20.0715 5.27406 20.3604 5.63042 20.3604H16.7933C17.1497 20.3604 17.4385 20.0715 17.4385 19.7152V12.0044C17.4385 11.8084 17.5974 11.6495 17.7934 11.6495C17.9894 11.6495 18.1483 11.8084 18.1483 12.0044V19.7152C18.1483 20.4635 17.5417 21.0702 16.7933 21.0702H5.63042C4.88206 21.0702 4.27539 20.4635 4.27539 19.7152V8.5523Z" fill="#235784"/>
<path fill-rule="evenodd" clip-rule="evenodd" d="M20.525 4.42534C20.2728 4.18037 19.8708 4.18247 19.6212 4.43005L12.8336 11.1607C12.7452 11.2483 12.6839 11.3602 12.6574 11.4821C12.4653 12.3654 12.3418 12.9369 12.2782 13.2589C12.6126 13.1831 13.1679 13.0217 14.0671 12.7307C14.1703 12.6973 14.2638 12.6376 14.3383 12.5575L20.8192 5.59123C21.0583 5.33427 21.0481 4.93335 20.7964 4.68883L20.525 4.42534ZM19.1214 3.92606C19.6457 3.40612 20.4898 3.40173 21.0195 3.91616L21.2909 4.17965C21.8196 4.69314 21.8409 5.53507 21.3389 6.07469L14.858 13.041C14.7017 13.2089 14.5048 13.335 14.2857 13.406C13.2632 13.7369 12.6443 13.9141 12.2814 13.9833C12.1145 14.0152 11.9433 14.0372 11.8033 14.0051C11.7242 13.9869 11.6048 13.9399 11.5257 13.8168C11.4469 13.6942 11.4552 13.5691 11.4687 13.4996C11.4855 13.4124 11.5153 13.3334 11.5343 13.2832L11.537 13.2761C11.5593 13.2168 11.5683 13.1904 11.5727 13.1677C11.6353 12.8453 11.7635 12.2522 11.9638 11.3313C12.0194 11.0757 12.1479 10.8411 12.3338 10.6567L19.1214 3.92606Z" fill="#235784"/>
<path fill-rule="evenodd" clip-rule="evenodd" d="M20.0843 6.77776L18.5034 5.29368L18.9451 4.82324L20.5259 6.30732L20.0843 6.77776Z" fill="#235784"/>
</svg>
