<svg width="23" height="24" viewBox="0 0 23 24" fill="none" xmlns="http://www.w3.org/2000/svg">
<path d="M3.36914 24H10.8711V15.4688H8.17578V12.6562H10.8711V9.14062C10.8711 7.20209 12.3825 5.625 14.2402 5.625H17.6094V8.4375H14.9141C14.1709 8.4375 13.5664 9.0683 13.5664 9.84375V12.6562H17.4878L17.0386 15.4688H13.5664V24H19.6309C21.4886 24 23 22.4229 23 20.4844V3.51562C23 1.57709 21.4886 0 19.6309 0H3.36914C1.51138 0 0 1.57709 0 3.51562V20.4844C0 22.4229 1.51138 24 3.36914 24ZM1.34766 3.51562C1.34766 2.35254 2.25452 1.40625 3.36914 1.40625H19.6309C20.7455 1.40625 21.6523 2.35254 21.6523 3.51562V20.4844C21.6523 21.6475 20.7455 22.5938 19.6309 22.5938H14.9141V16.875H18.1802L19.0786 11.25H14.9141V9.84375H18.957V4.21875H14.2402C11.6393 4.21875 9.52344 6.42664 9.52344 9.14062V11.25H6.82812V16.875H9.52344V22.5938H3.36914C2.25452 22.5938 1.34766 21.6475 1.34766 20.4844V3.51562Z" fill="#235784"/>
</svg>
