<svg width="80" height="80" viewBox="0 0 80 80" fill="none" xmlns="http://www.w3.org/2000/svg">
<circle cx="40" cy="40" r="40" fill="#F5F5F5"/>
<path d="M34.0985 22.204L33.3881 26.3441C33.3047 26.8236 33.4964 27.3016 33.8883 27.591C34.1133 27.7574 34.3784 27.8419 34.6456 27.8419C34.8421 27.8419 35.0396 27.7959 35.2223 27.703L39.0349 25.7726L42.65 27.6739C43.0794 27.9016 43.5938 27.8672 43.9904 27.5836C44.3892 27.2979 44.5878 26.8205 44.5085 26.3282L43.7987 22.204L46.797 19.2807C47.1471 18.939 47.2702 18.4373 47.1181 17.9715C46.966 17.5051 46.5693 17.1724 46.085 17.1027L41.9466 16.5011L40.0917 12.745C39.872 12.3066 39.4337 12.0352 38.9462 12.0352C38.9446 12.0352 38.9425 12.0352 38.9409 12.0352C38.4529 12.0373 38.0162 12.3114 37.8007 12.7508L35.9512 16.5011L31.8101 17.1021C31.3247 17.1708 30.9291 17.5035 30.7775 17.9699C30.6254 18.4373 30.7506 18.9401 31.1018 19.2802L34.0985 22.204ZM36.5907 18.0095C36.849 17.972 37.0724 17.8098 37.1875 17.5759L38.9478 14.0067L40.7102 17.5759C40.8253 17.8093 41.0487 17.972 41.3065 18.009L45.2437 18.5809L42.3939 21.3595C42.2069 21.5417 42.1214 21.8042 42.1657 22.0614L42.8407 25.9839L39.4094 24.1792C39.1823 24.0599 38.9119 24.0578 38.6827 24.1734L35.0517 26.0119L35.7293 22.0603C35.7732 21.8037 35.6882 21.5417 35.5017 21.3595L32.6524 18.5799L36.5907 18.0095Z" fill="black"/>
<path d="M52.0756 32.7798H44.574C44.3643 32.7798 44.1626 32.8633 44.0137 33.0117C43.8647 33.1601 43.7818 33.3618 43.7818 33.572L43.7844 42.1586H34.1164L34.1132 33.5715C34.1132 33.1342 33.7583 32.7793 33.321 32.7793H25.8183C25.3805 32.7793 25.0261 33.1337 25.0261 33.5715V59.8307C25.0261 60.268 25.3805 60.6229 25.8183 60.6229H33.3216C33.7588 60.6229 34.1138 60.2685 34.1138 59.8312L34.1169 51.2442H43.785L43.7823 59.8307C43.7823 60.0403 43.8658 60.2421 44.0142 60.391C44.1626 60.54 44.3643 60.6229 44.5745 60.6229H52.0762C52.5135 60.6229 52.8684 60.268 52.8684 59.8307V33.5715C52.8679 33.1342 52.5129 32.7798 52.0756 32.7798ZM51.2834 59.039H45.3662L45.3689 50.4525C45.3689 50.2428 45.2854 50.0411 45.137 49.8921C44.9886 49.7432 44.7868 49.6603 44.5767 49.6603H33.3247C32.8874 49.6603 32.5325 50.0147 32.5325 50.452L32.5293 59.039H26.6105V34.3642H32.5293L32.5325 42.9513C32.5325 43.3886 32.8874 43.743 33.3247 43.743H44.5767C44.7863 43.743 44.9881 43.6595 45.137 43.5111C45.2859 43.3627 45.3689 43.161 45.3689 42.9508L45.3662 34.3642H51.2834V59.039Z" fill="black"/>
</svg>
