<svg width="20" height="21" viewBox="0 0 20 21" fill="none" xmlns="http://www.w3.org/2000/svg">
<path d="M13.6328 2.57031C12.8125 1.90625 11.4062 0.5 10 0.5C8.55469 0.5 7.1875 1.86719 6.32812 2.57031C5 3.625 2.07031 6.00781 0.664062 7.14062C0.234375 7.49219 0 8 0 8.58594V18.625C0 19.6797 0.820312 20.5 1.875 20.5H18.125C19.1406 20.5 20 19.6797 20 18.625V8.58594C20 8 19.7266 7.49219 19.2969 7.14062C17.8906 6.00781 14.9609 3.625 13.6328 2.57031ZM18.125 19.25H1.875C1.52344 19.25 1.25 18.9766 1.25 18.625V8.58594C1.25 8.39062 1.32812 8.19531 1.44531 8.07812C2.5 7.25781 6.21094 4.25 7.10938 3.54688C7.8125 3 9.0625 1.75 10 1.75C10.8984 1.75 12.1484 3 12.8516 3.54688C13.75 4.25 17.4609 7.25781 18.5156 8.07812C18.6328 8.19531 18.75 8.39062 18.75 8.58594V18.625C18.75 18.9766 18.4375 19.25 18.125 19.25ZM17.7734 10.8125L17.5781 10.5781C17.4219 10.3828 17.1094 10.3438 16.9141 10.5C16.0156 11.2422 14.7656 12.2188 12.8516 13.7422C12.1875 14.2891 10.8984 15.5391 10 15.5C9.0625 15.5391 7.77344 14.2891 7.10938 13.7422C5.19531 12.2188 3.94531 11.2422 3.04688 10.5C2.85156 10.3438 2.53906 10.3828 2.38281 10.5781L2.1875 10.8125C2.03125 11.0078 2.07031 11.3203 2.26562 11.4766C3.16406 12.2188 4.41406 13.1953 6.32812 14.7188C7.14844 15.3828 8.55469 16.7891 9.96094 16.75C11.4062 16.7891 12.8125 15.3828 13.6328 14.7188C15.5469 13.1953 16.7969 12.2188 17.6953 11.4766C17.8906 11.3203 17.9297 11.0078 17.7734 10.8125Z" fill="black"/>
</svg>
