<svg width="71" height="71" viewBox="0 0 71 71" fill="none" xmlns="http://www.w3.org/2000/svg">
<path d="M58 35.5C58 47.9264 47.9264 58 35.5 58C23.0736 58 13 47.9264 13 35.5C13 23.0736 23.0736 13 35.5 13C47.9264 13 58 23.0736 58 35.5Z" fill="white"/>
<path d="M70.5 35.5C70.5 54.83 54.83 70.5 35.5 70.5C16.17 70.5 0.5 54.83 0.5 35.5C0.5 16.17 16.17 0.5 35.5 0.5C54.83 0.5 70.5 16.17 70.5 35.5Z" stroke="white"/>
<path d="M29.656 43.4323V27.8141C29.656 27.1396 30.4009 26.7331 30.9678 27.0956L43.1758 34.9047C43.7009 35.2409 43.7009 36.0055 43.1758 36.3417L30.9678 44.1508C30.4009 44.5133 29.656 44.1068 29.656 43.4323Z" fill="#384652"/>
<path d="M29.9856 43.4331C29.9856 43.1255 29.9856 42.8157 29.9856 42.5081C29.9856 41.7237 29.9856 40.9392 29.9856 40.1548C29.9856 39.0891 29.9856 38.0235 29.9856 36.96C29.9856 35.8174 29.9856 34.6748 29.9856 33.5301C29.9856 32.5105 29.9856 31.491 29.9856 30.4693C29.9856 29.7727 29.9856 29.0784 29.9856 28.3819C29.9856 28.2193 29.9856 28.0545 29.9856 27.8919C29.9856 27.8677 29.9856 27.8413 29.9856 27.8172C29.9856 27.8062 29.9856 27.8018 29.9856 27.7864C29.9856 27.7666 29.9878 27.749 29.99 27.7293C29.9856 27.7996 29.9878 27.7403 29.9922 27.7205C30.0032 27.6809 30.0142 27.6414 30.0251 27.604C30.0032 27.6699 30.0186 27.615 30.0295 27.5974C30.0449 27.5711 30.0581 27.5447 30.0757 27.5183C30.0845 27.503 30.0955 27.4898 30.1042 27.4766C30.0647 27.5315 30.0911 27.4942 30.1021 27.4832C30.1328 27.4524 30.1614 27.4238 30.1943 27.3953C30.1416 27.4414 30.1812 27.4041 30.1987 27.3931C30.2163 27.3821 30.2339 27.3711 30.2537 27.3601C30.269 27.3513 30.2844 27.3447 30.2998 27.336C30.3635 27.3008 30.2515 27.3491 30.3152 27.3294C30.3569 27.3184 30.3965 27.3052 30.4382 27.2964C30.5129 27.2766 30.3943 27.2898 30.4404 27.2964C30.4602 27.2986 30.4844 27.2942 30.5042 27.2942C30.5217 27.2942 30.5393 27.2942 30.5569 27.2964C30.5613 27.2964 30.6426 27.3118 30.592 27.2986C30.5393 27.2854 30.625 27.3074 30.6272 27.3074C30.6536 27.314 30.6799 27.3228 30.7041 27.3316C30.7612 27.3491 30.7151 27.336 30.7019 27.3294C30.7283 27.3426 30.7524 27.3557 30.7766 27.3689C30.7854 27.3733 30.7942 27.3799 30.8008 27.3843C30.803 27.3865 30.8052 27.3865 30.8074 27.3887C30.8381 27.4085 30.8711 27.4282 30.9019 27.448C31.0667 27.5535 31.2292 27.6568 31.394 27.7622C32.0334 28.1709 32.675 28.5818 33.3145 28.9905C34.2153 29.5684 35.1184 30.1441 36.0193 30.7219C36.9751 31.3328 37.9309 31.9458 38.8889 32.5567C39.7129 33.084 40.5347 33.6092 41.3586 34.1365C41.8486 34.4507 42.3386 34.7649 42.8308 35.0769C42.8792 35.1077 42.9253 35.1385 42.9736 35.167C42.9846 35.1736 42.9956 35.1802 43.0066 35.1868C43.0088 35.1868 43.011 35.189 43.011 35.189C43.0264 35.2 43.0439 35.211 43.0593 35.2219C43.0088 35.1824 43.0571 35.2219 43.0681 35.2329C43.0901 35.2571 43.1121 35.2791 43.134 35.301C43.1472 35.3142 43.1604 35.3494 43.1318 35.2989C43.1406 35.3142 43.1516 35.3274 43.1604 35.3428C43.1736 35.3648 43.1846 35.3889 43.1978 35.4131C43.2065 35.4307 43.2131 35.468 43.1956 35.4065C43.2087 35.4483 43.2219 35.4878 43.2329 35.5318C43.2373 35.5493 43.2395 35.5647 43.2417 35.5823C43.2285 35.4988 43.2395 35.5779 43.2395 35.5977C43.2395 35.6218 43.2285 35.7515 43.2417 35.6636C43.2351 35.7053 43.2263 35.7493 43.2131 35.7888C43.2087 35.8064 43.2021 35.8218 43.1956 35.8372C43.2175 35.7691 43.2021 35.824 43.1912 35.8416C43.1802 35.8614 43.1714 35.8811 43.1582 35.8987C43.1516 35.9075 43.1011 35.9778 43.1472 35.9185C43.1187 35.9536 43.0857 35.9844 43.0527 36.0174C43.0439 36.0261 43.0044 36.0569 43.0527 36.0196C43.0352 36.0327 43.0242 36.0393 43.0044 36.0525C43.0022 36.0525 43.0022 36.0547 43 36.0547C42.9912 36.0613 42.9802 36.0679 42.9714 36.0723C42.5979 36.3118 42.2244 36.5491 41.8508 36.7886C41.0972 37.2698 40.3435 37.7532 39.5898 38.2344C38.6428 38.8386 37.698 39.4451 36.751 40.0493C35.8215 40.6448 34.8899 41.2403 33.9604 41.8357C33.2332 42.3015 32.5059 42.7674 31.7786 43.231C31.4534 43.4397 31.1304 43.6507 30.803 43.855C30.7678 43.877 30.7327 43.8968 30.6953 43.9165C30.7502 43.888 30.7107 43.9099 30.6975 43.9143C30.6755 43.9209 30.6536 43.9275 30.6316 43.9341C30.6096 43.9407 30.5876 43.9429 30.5657 43.9495C30.625 43.9319 30.5986 43.9473 30.5745 43.9473C30.5305 43.9495 30.4888 43.9495 30.4448 43.9473C30.3833 43.9451 30.4426 43.9473 30.4558 43.9495C30.4316 43.9451 30.4053 43.9407 30.3811 43.9341C30.3591 43.9297 30.2646 43.8946 30.2998 43.9099C30.335 43.9253 30.2427 43.8792 30.2251 43.8682C30.2075 43.8572 30.1899 43.8418 30.1724 43.833C30.1306 43.8133 30.2229 43.8836 30.168 43.8286C30.1372 43.7979 30.1064 43.7693 30.0779 43.7364C30.124 43.7869 30.0691 43.721 30.0537 43.699C30.0405 43.677 30.0295 43.6529 30.0164 43.6309C30.0076 43.6133 30.0032 43.5781 30.0186 43.6375C30.0076 43.5935 29.9922 43.5518 29.9812 43.5078C29.9768 43.4903 29.979 43.4485 29.9812 43.5122C29.9878 43.4903 29.9856 43.4617 29.9856 43.4331C29.9834 43.2617 29.8362 43.0947 29.656 43.1035C29.4802 43.1123 29.3242 43.2486 29.3264 43.4331C29.333 43.8682 29.5703 44.2879 29.968 44.4834C30.3438 44.668 30.7788 44.657 31.137 44.4351C31.2183 44.3845 31.2996 44.3318 31.3787 44.2791C31.9126 43.9385 32.4465 43.5957 32.9805 43.2551C33.8396 42.7058 34.6987 42.1565 35.5579 41.6072C36.5313 40.9832 37.5068 40.3614 38.4802 39.7373C39.3679 39.1704 40.2556 38.6013 41.1433 38.0344C41.741 37.6521 42.3408 37.2698 42.9385 36.8853C43.0637 36.8062 43.189 36.7249 43.3142 36.6458C43.4329 36.5689 43.5449 36.481 43.6328 36.3689C43.9207 36.0064 43.9734 35.5252 43.7778 35.1055C43.657 34.8484 43.4417 34.6858 43.2131 34.5386C43.0374 34.4265 42.8594 34.3123 42.6836 34.2002C42.0134 33.7718 41.3433 33.3433 40.6753 32.9148C39.7524 32.3238 38.8274 31.7327 37.9045 31.1416C36.9333 30.522 35.9644 29.9002 34.9932 29.2805C34.1824 28.762 33.3716 28.2434 32.5608 27.7249C32.1169 27.4414 31.6753 27.158 31.2314 26.8745C30.9304 26.6812 30.5964 26.5823 30.2361 26.6636C29.6802 26.7888 29.3264 27.3008 29.3242 27.8545C29.3242 28.283 29.3242 28.7093 29.3242 29.1377C29.3242 30.0166 29.3242 30.8955 29.3242 31.7744C29.3242 32.8906 29.3242 34.0047 29.3242 35.1209C29.3242 36.2656 29.3242 37.4126 29.3242 38.5574C29.3242 39.5264 29.3242 40.4954 29.3242 41.4666C29.3242 42.0467 29.3242 42.6245 29.3242 43.2046C29.3242 43.2815 29.3242 43.3584 29.3242 43.4375C29.3242 43.6089 29.4758 43.7759 29.6538 43.7671C29.834 43.7539 29.9856 43.6177 29.9856 43.4331Z" fill="#384652"/>
</svg>
