<svg width="80" height="80" viewBox="0 0 80 80" fill="none" xmlns="http://www.w3.org/2000/svg">
<circle cx="40" cy="40" r="40" fill="#F5F5F5"/>
<path d="M56.8515 26.047H49.4291V22.8412C49.4291 22.4529 49.1144 22.1387 48.7266 22.1387C48.3388 22.1387 48.0241 22.4529 48.0241 22.8412V26.047H30.0091V22.8412C30.0091 22.4529 29.6949 22.1387 29.3066 22.1387C28.9183 22.1387 28.6041 22.4529 28.6041 22.8412V26.047H21.9835C21.5953 26.047 21.281 26.3613 21.281 26.7495V55.9931C21.281 56.3809 21.5953 56.6956 21.9835 56.6956H56.8515C57.2393 56.6956 57.554 56.3809 57.554 55.9931V26.7495C57.554 26.3613 57.2393 26.047 56.8515 26.047ZM56.149 55.2906H22.686V27.4521H28.6041V29.5788C28.6041 29.9671 28.9183 30.2813 29.3066 30.2813C29.6949 30.2813 30.0091 29.9671 30.0091 29.5788V27.4521H48.0241V29.5788C48.0241 29.9671 48.3388 30.2813 48.7266 30.2813C49.1144 30.2813 49.4291 29.9671 49.4291 29.5788V27.4521H56.149V55.2906Z" fill="black"/>
<path d="M49.2048 46.1347L46.8345 43.7635C46.56 43.489 46.1155 43.489 45.8411 43.7635C45.5666 44.0374 45.5666 44.4824 45.8411 44.7568L48.2114 47.1281L45.8411 49.4993C45.5666 49.7738 45.5666 50.2187 45.8411 50.4927C45.9783 50.6299 46.1582 50.6983 46.338 50.6983C46.5179 50.6983 46.6977 50.6299 46.8349 50.4927L49.2052 48.1214L51.5755 50.4927C51.7128 50.6299 51.8926 50.6983 52.0724 50.6983C52.2523 50.6983 52.4321 50.6299 52.5694 50.4927C52.8438 50.2187 52.8438 49.7738 52.5694 49.4993L50.1991 47.1281L52.5694 44.7568C52.8438 44.4824 52.8438 44.0374 52.5694 43.7635C52.2949 43.489 51.8504 43.489 51.576 43.7635L49.2048 46.1347Z" fill="black"/>
<path d="M31.8993 34.0684H27.5675C27.1793 34.0684 26.865 34.3826 26.865 34.7709V39.1017C26.865 39.4899 27.1793 39.8042 27.5675 39.8042H31.8993C32.2875 39.8042 32.6018 39.4895 32.6018 39.1017V34.7709C32.6018 34.3826 32.2875 34.0684 31.8993 34.0684ZM31.1967 38.3992H28.27V35.4734H31.1967V38.3992Z" fill="black"/>
<path d="M41.7689 34.0684H37.4386C37.0503 34.0684 36.7361 34.3826 36.7361 34.7709V39.1017C36.7361 39.4899 37.0503 39.8042 37.4386 39.8042H41.7689C42.1567 39.8042 42.4715 39.4895 42.4715 39.1017V34.7709C42.4715 34.3826 42.1572 34.0684 41.7689 34.0684ZM41.0664 38.3992H38.1411V35.4734H41.0664V38.3992Z" fill="black"/>
<path d="M31.8993 44.0293H27.5675C27.1793 44.0293 26.865 44.344 26.865 44.7318V49.0626C26.865 49.4504 27.1793 49.7651 27.5675 49.7651H31.8993C32.2875 49.7651 32.6018 49.4504 32.6018 49.0626V44.7318C32.6018 44.344 32.2875 44.0293 31.8993 44.0293ZM31.1967 48.3601H28.27V45.4343H31.1967V48.3601Z" fill="black"/>
<path d="M41.7689 44.0293H37.4386C37.0503 44.0293 36.7361 44.344 36.7361 44.7318V49.0626C36.7361 49.4504 37.0503 49.7651 37.4386 49.7651H41.7689C42.1567 49.7651 42.4715 49.4504 42.4715 49.0626V44.7318C42.4715 44.344 42.1572 44.0293 41.7689 44.0293ZM41.0664 48.3601H38.1411V45.4343H41.0664V48.3601Z" fill="black"/>
<path d="M46.8566 34.0684C46.4688 34.0684 46.1541 34.3826 46.1541 34.7709V39.1017C46.1541 39.4899 46.4688 39.8042 46.8566 39.8042H51.1883C51.5761 39.8042 51.8908 39.4895 51.8908 39.1017V34.7709C51.8908 34.3826 51.5761 34.0684 51.1883 34.0684H46.8566ZM50.4858 38.3992H47.5591V35.4734H50.4858V38.3992Z" fill="black"/>
</svg>
