<svg width="18" height="19" viewBox="0 0 18 19" fill="none" xmlns="http://www.w3.org/2000/svg">
<path fill-rule="evenodd" clip-rule="evenodd" d="M0.275391 5.5523C0.275391 4.80393 0.882059 4.19727 1.63042 4.19727H9.48637C9.68237 4.19727 9.84126 4.35615 9.84126 4.55215C9.84126 4.74815 9.68237 4.90704 9.48637 4.90704H1.63042C1.27406 4.90704 0.985169 5.19593 0.985169 5.5523V16.7152C0.985169 17.0715 1.27406 17.3604 1.63042 17.3604H12.7933C13.1497 17.3604 13.4385 17.0715 13.4385 16.7152V9.0044C13.4385 8.8084 13.5974 8.64951 13.7934 8.64951C13.9894 8.64951 14.1483 8.8084 14.1483 9.0044V16.7152C14.1483 17.4635 13.5417 18.0702 12.7933 18.0702H1.63042C0.882059 18.0702 0.275391 17.4635 0.275391 16.7152V5.5523Z" fill="#235784"/>
<path fill-rule="evenodd" clip-rule="evenodd" d="M16.525 1.42534C16.2728 1.18037 15.8708 1.18247 15.6212 1.43005L8.8336 8.1607C8.74521 8.24835 8.68386 8.36022 8.65736 8.48212C8.46529 9.36541 8.34175 9.93691 8.27816 10.2589C8.61261 10.1831 9.16791 10.0217 10.0671 9.73068C10.1703 9.69728 10.2638 9.6376 10.3383 9.55751L16.8192 2.59123C17.0583 2.33427 17.0481 1.93335 16.7964 1.68883L16.525 1.42534ZM15.1214 0.926057C15.6457 0.406125 16.4898 0.401726 17.0195 0.916165L17.2909 1.17965C17.8196 1.69314 17.8409 2.53507 17.3389 3.07469L10.858 10.041C10.7017 10.2089 10.5048 10.335 10.2857 10.406C9.26316 10.7369 8.64434 10.9141 8.28142 10.9833C8.11446 11.0152 7.94328 11.0372 7.8033 11.0051C7.7242 10.9869 7.60479 10.9399 7.52571 10.8168C7.44694 10.6942 7.45524 10.5691 7.46866 10.4996C7.48551 10.4124 7.51532 10.3334 7.53427 10.2832L7.53696 10.2761C7.55927 10.2168 7.56834 10.1904 7.57274 10.1677C7.63533 9.84532 7.76354 9.25221 7.96379 8.3313C8.01937 8.0757 8.14789 7.84108 8.33383 7.65671L15.1214 0.926057Z" fill="#235784"/>
<path fill-rule="evenodd" clip-rule="evenodd" d="M16.0845 3.77776L14.5037 2.29368L14.9453 1.82324L16.5262 3.30732L16.0845 3.77776Z" fill="#235784"/>
</svg>
