<svg width="20" height="21" viewBox="0 0 20 21" fill="none" xmlns="http://www.w3.org/2000/svg">
<path d="M9.90647 0.8125C4.55491 0.8125 0.218969 5.14844 0.218969 10.5C0.218969 15.8516 4.55491 20.1875 9.90647 20.1875C15.258 20.1875 19.594 15.8516 19.594 10.5C19.594 5.14844 15.258 0.8125 9.90647 0.8125ZM18.344 10.5C18.344 15.1484 14.5549 18.9375 9.90647 18.9375C5.25803 18.9375 1.46897 15.1875 1.46897 10.5C1.46897 5.89062 5.21897 2.0625 9.90647 2.0625C14.5158 2.0625 18.344 5.85156 18.344 10.5ZM12.5237 13.9766C12.719 14.1328 13.0315 14.0547 13.1487 13.8594L13.5002 13.4297C13.6565 13.1953 13.5783 12.9219 13.383 12.7656L10.6487 10.7734V5.03125C10.6487 4.79688 10.4143 4.5625 10.1799 4.5625H9.63303C9.35959 4.5625 9.16428 4.79688 9.16428 5.03125V11.2812C9.16428 11.4375 9.20334 11.5547 9.32053 11.6719L12.5237 13.9766Z" fill="#235784"/>
</svg>
