<svg width="43" height="43" viewBox="0 0 43 43" fill="none" xmlns="http://www.w3.org/2000/svg">
<g opacity="0.8" clip-path="url(#clip0_1217_3640)">
<rect x="3" width="40" height="40" rx="20" fill="black" fill-opacity="0.5"/>
<path d="M24.7629 20.0002L30.1379 14.6377C30.3733 14.4024 30.5055 14.0831 30.5055 13.7502C30.5055 13.4174 30.3733 13.0981 30.1379 12.8627C29.9025 12.6274 29.5833 12.4951 29.2504 12.4951C28.9175 12.4951 28.5983 12.6274 28.3629 12.8627L23.0004 18.2377L17.6379 12.8627C17.4025 12.6274 17.0833 12.4951 16.7504 12.4951C16.4175 12.4951 16.0983 12.6274 15.8629 12.8627C15.6275 13.0981 15.4953 13.4174 15.4953 13.7502C15.4953 14.0831 15.6275 14.4024 15.8629 14.6377L21.2379 20.0002L15.8629 25.3627C15.7458 25.4789 15.6528 25.6172 15.5893 25.7695C15.5258 25.9218 15.4932 26.0852 15.4932 26.2502C15.4932 26.4152 15.5258 26.5786 15.5893 26.731C15.6528 26.8833 15.7458 27.0215 15.8629 27.1377C15.9791 27.2549 16.1174 27.3479 16.2697 27.4113C16.422 27.4748 16.5854 27.5075 16.7504 27.5075C16.9154 27.5075 17.0788 27.4748 17.2311 27.4113C17.3835 27.3479 17.5217 27.2549 17.6379 27.1377L23.0004 21.7627L28.3629 27.1377C28.4791 27.2549 28.6174 27.3479 28.7697 27.4113C28.922 27.4748 29.0854 27.5075 29.2504 27.5075C29.4154 27.5075 29.5788 27.4748 29.7311 27.4113C29.8835 27.3479 30.0217 27.2549 30.1379 27.1377C30.2551 27.0215 30.3481 26.8833 30.4115 26.731C30.475 26.5786 30.5077 26.4152 30.5077 26.2502C30.5077 26.0852 30.475 25.9218 30.4115 25.7695C30.3481 25.6172 30.2551 25.4789 30.1379 25.3627L24.7629 20.0002Z" fill="white"/>
</g>
<defs>
<clipPath id="clip0_1217_3640">
<rect width="43" height="43" fill="white"/>
</clipPath>
</defs>
</svg>
