<svg width="14" height="15" viewBox="0 0 14 15" fill="none" xmlns="http://www.w3.org/2000/svg">
<path opacity="0.6" d="M6.156 9.172C6.156 8.76133 6.198 8.41133 6.282 8.122C6.37533 7.82333 6.506 7.56667 6.674 7.352C6.85133 7.13733 7.07533 6.95067 7.346 6.792C7.52333 6.68 7.724 6.56333 7.948 6.442C8.18133 6.32067 8.396 6.18067 8.592 6.022C8.79733 5.854 8.96533 5.65333 9.096 5.42C9.22667 5.17733 9.292 4.888 9.292 4.552C9.292 4.14133 9.19867 3.80533 9.012 3.544C8.83467 3.27333 8.60133 3.07267 8.312 2.942C8.02267 2.802 7.71467 2.732 7.388 2.732C7.06133 2.732 6.74867 2.79733 6.45 2.928C6.16067 3.04933 5.904 3.21733 5.68 3.432C5.456 3.64667 5.274 3.88933 5.134 4.16L4.476 3.74C4.65333 3.35733 4.89133 3.03067 5.19 2.76C5.498 2.48933 5.84333 2.284 6.226 2.144C6.60867 2.004 7.00067 1.934 7.402 1.934C7.74733 1.934 8.08333 1.99 8.41 2.102C8.73667 2.20467 9.026 2.368 9.278 2.592C9.53933 2.816 9.74467 3.096 9.894 3.432C10.0527 3.75867 10.132 4.15067 10.132 4.608C10.132 4.98133 10.0807 5.29867 9.978 5.56C9.87533 5.812 9.73067 6.03133 9.544 6.218C9.36667 6.39533 9.166 6.554 8.942 6.694C8.718 6.834 8.48467 6.96933 8.242 7.1C8.02733 7.22133 7.822 7.35667 7.626 7.506C7.43 7.65533 7.27133 7.86067 7.15 8.122C7.02867 8.374 6.968 8.724 6.968 9.172H6.156ZM6.17 12V10.502H6.996V12H6.17Z" fill="black"/>
<circle cx="7" cy="7" r="6.5" stroke="black" stroke-opacity="0.6"/>
</svg>
