<svg width="133" height="133" viewBox="0 0 133 133" fill="none" xmlns="http://www.w3.org/2000/svg">
<path d="M128.155 65.435L68.2814 10.5531C67.4724 9.81131 66.2768 9.81591 65.4763 10.5654L6.87682 65.2507C5.98189 66.0862 5.88739 67.5406 6.66633 68.5005C7.44527 69.4604 8.80269 69.5602 9.69618 68.7262L22.3225 56.9436V130.466C22.3225 131.737 23.2833 132.769 24.4703 132.769H108.385C109.571 132.769 110.533 131.737 110.533 130.466V55.3433L125.363 68.9366C125.768 69.3083 126.264 69.4895 126.758 69.4895C127.365 69.4895 127.968 69.2162 128.393 68.6832C129.163 67.7157 129.057 66.2613 128.155 65.435ZM106.238 128.163H26.6181V52.9351L66.8982 15.3448L106.238 51.4055V128.163Z" fill="#235784"/>
<path d="M42.9688 62.3289V104.948C42.9688 106.174 43.9193 107.169 45.0936 107.169H85.8593C87.0322 107.169 87.9841 106.174 87.9841 104.948V62.3289C87.9841 61.1013 87.0322 60.1077 85.8593 60.1077H45.0936C43.9207 60.1077 42.9688 61.1013 42.9688 62.3289ZM67.7571 102.727V85.8612H83.7345V102.727H67.7571ZM83.7359 81.4186H67.7571V64.5502H83.7345V81.4186H83.7359ZM47.2184 64.5502H63.5074V82.8166C63.4097 83.0713 63.353 83.3482 63.353 83.6399C63.353 83.9316 63.4097 84.2086 63.5074 84.4633V102.725H47.2184V64.5502Z" fill="#235784"/>
</svg>
