<svg width="17" height="23" viewBox="0 0 17 23" fill="none" xmlns="http://www.w3.org/2000/svg">
<path d="M8.25 4.875C5.97266 4.875 4.125 6.76562 4.125 9C4.125 11.2773 5.97266 13.125 8.25 13.125C10.4844 13.125 12.375 11.2773 12.375 9C12.375 6.76562 10.4844 4.875 8.25 4.875ZM8.25 11.75C6.70312 11.75 5.5 10.5469 5.5 9C5.5 7.49609 6.70312 6.25 8.25 6.25C9.75391 6.25 11 7.49609 11 9C11 10.5469 9.75391 11.75 8.25 11.75ZM8.25 0.75C3.65234 0.75 0 4.44531 0 9C0 12.3516 1.11719 13.2969 7.39062 22.3203C7.77734 22.9219 8.67969 22.9219 9.06641 22.3203C15.3398 13.2969 16.5 12.3516 16.5 9C16.5 4.44531 12.8047 0.75 8.25 0.75ZM8.25 21.1172C2.23438 12.4805 1.375 11.793 1.375 9C1.375 7.19531 2.0625 5.47656 3.35156 4.14453C4.68359 2.85547 6.40234 2.125 8.25 2.125C10.0547 2.125 11.7734 2.85547 13.1055 4.14453C14.3945 5.47656 15.125 7.19531 15.125 9C15.125 11.793 14.2227 12.4805 8.25 21.1172Z" fill="#235784"/>
</svg>
