<svg width="133" height="133" viewBox="0 0 133 133" fill="none" xmlns="http://www.w3.org/2000/svg">
<path d="M53.7423 27.8355L51.7979 39.1683C51.5695 40.481 52.0942 41.7894 53.1669 42.5816C53.7828 43.037 54.5085 43.2683 55.24 43.2683C55.7778 43.2683 56.3185 43.1426 56.8187 42.8881L67.2551 37.6041L77.1509 42.8086C78.3262 43.4317 79.7343 43.3377 80.82 42.5614C81.9115 41.7793 82.4551 40.4724 82.2382 39.125L80.2952 27.8355L88.5024 19.8336C89.4609 18.8982 89.7977 17.5248 89.3813 16.2497C88.965 14.9731 87.8793 14.0623 86.5536 13.8715L75.2252 12.2248L70.148 1.94302C69.5466 0.743089 68.3466 0 67.0123 0C67.0079 0 67.0021 0 66.9978 0C65.662 0.0057828 64.4664 0.756101 63.8766 1.95892L58.8138 12.2248L47.4782 13.87C46.1496 14.058 45.0668 14.9688 44.6518 16.2453C44.2355 17.5248 44.5781 18.9011 45.5395 19.8321L53.7423 27.8355ZM60.5645 16.3538C61.2714 16.2511 61.883 15.8073 62.1981 15.1668L67.0166 5.3968L71.8408 15.1668C72.156 15.8058 72.7675 16.2511 73.473 16.3523L84.2506 17.918L76.4497 25.5238C75.9379 26.0226 75.7037 26.7411 75.8252 27.4452L77.6727 38.1824L68.2801 33.2424C67.6585 32.9157 66.9183 32.9099 66.2909 33.2265L56.3518 38.259L58.2066 27.4423C58.3266 26.7397 58.0938 26.0226 57.5835 25.5238L49.784 17.9151L60.5645 16.3538Z" fill="#235784"/>
<path d="M102.954 56.7842H82.4198C81.8458 56.7842 81.2936 57.0126 80.8859 57.4188C80.4782 57.8251 80.2513 58.3773 80.2513 58.9527L80.2585 82.4569H53.7938L53.7851 58.9513C53.7851 57.7542 52.8136 56.7827 51.6166 56.7827H31.0792C29.8807 56.7827 28.9106 57.7528 28.9106 58.9513V130.831C28.9106 132.028 29.8807 133 31.0792 133H51.618C52.815 133 53.7865 132.03 53.7865 130.833L53.7952 107.327H80.2599L80.2527 130.831C80.2527 131.405 80.4811 131.958 80.8874 132.365C81.2936 132.773 81.8458 133 82.4212 133H102.956C104.153 133 105.124 132.028 105.124 130.831V58.9513C105.123 57.7542 104.151 56.7842 102.954 56.7842ZM100.786 128.664H84.5883L84.5955 105.16C84.5955 104.586 84.3671 104.034 83.9609 103.626C83.5546 103.219 83.0024 102.992 82.427 102.992H51.6267C50.4297 102.992 49.4582 103.962 49.4582 105.159L49.4495 128.664H33.2477V61.1213H49.4495L49.4582 84.6269C49.4582 85.8239 50.4297 86.794 51.6267 86.794H82.427C83.001 86.794 83.5532 86.5656 83.9609 86.1593C84.3686 85.7531 84.5955 85.2008 84.5955 84.6254L84.5883 61.1213H100.786V128.664Z" fill="#235784"/>
</svg>
