<svg width="23" height="24" viewBox="0 0 23 24" fill="none" xmlns="http://www.w3.org/2000/svg">
<path d="M16.6949 0H6.3051C2.82846 0 0 2.95144 0 6.57928V17.4208C0 21.0486 2.82846 24 6.3051 24H16.6949C20.1716 24 23 21.0486 23 17.4208V6.57928C23 2.95144 20.1716 0 16.6949 0ZM21.6417 17.4208C21.6417 20.2671 19.4226 22.5827 16.6949 22.5827H6.3051C3.5774 22.5827 1.35826 20.2671 1.35826 17.4208V6.57928C1.35826 3.73294 3.5774 1.41731 6.3051 1.41731H16.6949C19.4226 1.41731 21.6417 3.73294 21.6417 6.57928V17.4208Z" fill="#235784"/>
<path d="M11.5008 5.41748C8.02233 5.41748 5.19238 8.37046 5.19238 12.0002C5.19238 15.6299 8.02228 18.5829 11.5008 18.5829C14.9793 18.5829 17.8093 15.6299 17.8093 12.0001C17.8093 8.37042 14.9793 5.41748 11.5008 5.41748ZM11.5008 17.1656C8.77126 17.1656 6.5506 14.8484 6.5506 12.0001C6.5506 9.15192 8.77126 6.8347 11.5008 6.8347C14.2304 6.8347 16.4511 9.15196 16.4511 12.0002C16.4511 14.8484 14.2304 17.1656 11.5008 17.1656Z" fill="#235784"/>
<path d="M18.1862 3.02344C17.1293 3.02344 16.2695 3.92067 16.2695 5.02345C16.2695 6.12623 17.1293 7.02342 18.1862 7.02342C19.243 7.02342 20.1028 6.12619 20.1028 5.02341C20.1028 3.92062 19.243 3.02344 18.1862 3.02344ZM18.1862 5.60606C17.8783 5.60606 17.6278 5.34469 17.6278 5.02341C17.6278 4.70212 17.8783 4.44075 18.1862 4.44075C18.4941 4.44075 18.7445 4.70217 18.7445 5.02341C18.7445 5.34464 18.4941 5.60606 18.1862 5.60606Z" fill="#235784"/>
</svg>
