<svg width="24" height="24" viewBox="0 0 24 24" fill="none" xmlns="http://www.w3.org/2000/svg">
<path d="M11.6689 6.4101C8.41895 6.4101 5.8291 9.05072 5.8291 12.2499C5.8291 15.4999 8.41895 18.0898 11.6689 18.0898C14.8682 18.0898 17.5088 15.4999 17.5088 12.2499C17.5088 9.05072 14.8682 6.4101 11.6689 6.4101ZM11.6689 16.0585C9.58691 16.0585 7.86035 14.3828 7.86035 12.2499C7.86035 10.1679 9.53613 8.49213 11.6689 8.49213C13.751 8.49213 15.4268 10.1679 15.4268 12.2499C15.4268 14.3828 13.751 16.0585 11.6689 16.0585ZM19.083 6.20697C19.083 5.44525 18.4736 4.83588 17.7119 4.83588C16.9502 4.83588 16.3408 5.44525 16.3408 6.20697C16.3408 6.96869 16.9502 7.57806 17.7119 7.57806C18.4736 7.57806 19.083 6.96869 19.083 6.20697ZM22.9424 7.57806C22.8408 5.74994 22.4346 4.12494 21.1143 2.80463C19.7939 1.48431 18.1689 1.07806 16.3408 0.976501C14.4619 0.874939 8.8252 0.874939 6.94629 0.976501C5.11816 1.07806 3.54395 1.48431 2.17285 2.80463C0.852539 4.12494 0.446289 5.74994 0.344727 7.57806C0.243164 9.45697 0.243164 15.0937 0.344727 16.9726C0.446289 18.8007 0.852539 20.3749 2.17285 21.746C3.54395 23.0663 5.11816 23.4726 6.94629 23.5742C8.8252 23.6757 14.4619 23.6757 16.3408 23.5742C18.1689 23.4726 19.7939 23.0663 21.1143 21.746C22.4346 20.3749 22.8408 18.8007 22.9424 16.9726C23.0439 15.0937 23.0439 9.45697 22.9424 7.57806ZM20.5049 18.9531C20.1494 19.9687 19.3369 20.7304 18.3721 21.1367C16.8486 21.746 13.2939 21.5937 11.6689 21.5937C9.99316 21.5937 6.43848 21.746 4.96582 21.1367C3.9502 20.7304 3.18848 19.9687 2.78223 18.9531C2.17285 17.4804 2.3252 13.9257 2.3252 12.2499C2.3252 10.6249 2.17285 7.07025 2.78223 5.54681C3.18848 4.58197 3.9502 3.82025 4.96582 3.414C6.43848 2.80463 9.99316 2.95697 11.6689 2.95697C13.2939 2.95697 16.8486 2.80463 18.3721 3.414C19.3369 3.76947 20.0986 4.58197 20.5049 5.54681C21.1143 7.07025 20.9619 10.6249 20.9619 12.2499C20.9619 13.9257 21.1143 17.4804 20.5049 18.9531Z" fill="white"/>
</svg>
