<svg width="79" height="79" viewBox="0 0 79 79" fill="none" xmlns="http://www.w3.org/2000/svg">
<circle cx="39.5" cy="39.5" r="39.5" fill="#235784"/>
<path d="M47.1565 42.2697C44.6619 42.2697 43.5437 43.6546 39.5008 43.6546C35.3719 43.6546 34.2536 42.2697 31.7591 42.2697C25.3936 42.2697 20.2325 47.5496 20.2325 53.9548V57.5037C20.2325 59.8407 22.0389 61.6584 24.3614 61.6584H54.6401C56.8766 61.6584 58.7691 59.8407 58.7691 57.5037V53.9548C58.7691 47.5496 53.5219 42.2697 47.1565 42.2697ZM56.0165 57.5037C56.0165 58.2827 55.3283 58.8886 54.6401 58.8886H24.3614C23.5872 58.8886 22.9851 58.2827 22.9851 57.5037V53.9548C22.9851 49.0211 26.856 45.0395 31.7591 45.0395C33.4794 45.0395 35.1138 46.4244 39.5008 46.4244C43.8017 46.4244 45.5221 45.0395 47.1565 45.0395C52.0596 45.0395 56.0165 49.0211 56.0165 53.9548V57.5037ZM39.5008 39.4998C45.5221 39.4998 50.5112 34.5661 50.5112 28.4206C50.5112 22.3616 45.5221 17.3413 39.5008 17.3413C33.3934 17.3413 28.4903 22.3616 28.4903 28.4206C28.4903 34.5661 33.3934 39.4998 39.5008 39.4998ZM39.5008 20.1111C43.9738 20.1111 47.7586 23.9196 47.7586 28.4206C47.7586 33.0081 43.9738 36.73 39.5008 36.73C34.9418 36.73 31.2429 33.0081 31.2429 28.4206C31.2429 23.9196 34.9418 20.1111 39.5008 20.1111Z" fill="white" fill-opacity="0.7"/>
</svg>
