<svg width="24" height="19" viewBox="0 0 24 19" fill="none" xmlns="http://www.w3.org/2000/svg">
<path d="M16.9709 13.4715C16.9697 13.4715 16.9683 13.4715 16.967 13.4715C16.8394 13.4701 16.7217 13.4024 16.6562 13.2928L13.1752 7.44672C13.1654 7.43036 13.1571 7.41352 13.15 7.39594C12.7159 6.68327 12.4869 5.8666 12.4869 5.02942C12.4913 2.51202 14.5412 0.466553 17.0574 0.466553C17.0593 0.466553 17.061 0.466553 17.063 0.466553C18.2845 0.468262 19.4312 0.945325 20.2921 1.80961C21.1525 2.67315 21.6251 3.82114 21.6234 5.04163C21.6234 5.86636 21.3954 6.67863 20.9632 7.39569C20.9549 7.41913 20.944 7.44159 20.9305 7.46332L17.2817 13.2997C17.2144 13.4064 17.0969 13.4715 16.9709 13.4715ZM13.8383 7.1286L16.9785 12.4024L20.2686 7.13983C20.2769 7.11737 20.2874 7.09539 20.3004 7.07464C20.6866 6.45768 20.8907 5.75454 20.8907 5.04138C20.8907 5.04114 20.8907 5.04114 20.8907 5.04089C20.8924 4.01548 20.4955 3.05158 19.773 2.32622C19.0503 1.60086 18.0874 1.20046 17.062 1.19875C17.0605 1.19875 17.0588 1.19875 17.0571 1.19875C14.944 1.19875 13.2228 2.91633 13.2194 5.02991C13.2194 5.75112 13.4223 6.45475 13.8058 7.06414C13.819 7.08441 13.8297 7.10614 13.8383 7.1286Z" fill="#FFF279"/>
<path d="M17.0586 6.74485C17.0574 6.74485 17.0562 6.74485 17.0547 6.74485C16.5391 6.74485 16.0535 6.54343 15.6885 6.1777C15.323 5.81148 15.1223 5.32514 15.1233 4.80779C15.1238 4.29215 15.3254 3.80703 15.6912 3.44228C16.0564 3.07825 16.5413 2.87781 17.0572 2.87781C17.0577 2.87781 17.0584 2.87781 17.0591 2.87781C18.1248 2.87903 18.9913 3.7477 18.9903 4.81438C18.9899 5.33075 18.7882 5.81612 18.4225 6.18087C18.0575 6.54465 17.5733 6.74485 17.0586 6.74485ZM17.0569 3.61025C16.7366 3.61025 16.4351 3.73476 16.2083 3.96109C15.9812 4.18741 15.856 4.48869 15.8557 4.80901C15.8552 5.13055 15.98 5.43281 16.2071 5.66035C16.4336 5.88741 16.7352 6.01241 17.0555 6.01241C17.0562 6.01241 17.0569 6.01241 17.0579 6.01241C17.3782 6.01241 17.6788 5.88814 17.9054 5.66231C18.1324 5.43598 18.2577 5.13446 18.2579 4.8139C18.2584 4.15128 17.7203 3.61123 17.0582 3.61049C17.0579 3.61025 17.0574 3.61025 17.0569 3.61025ZM18.6241 4.81414H18.6266H18.6241Z" fill="#FFF279"/>
<path d="M23.0379 18.6664H1.09929C0.976241 18.6664 0.861492 18.6046 0.793619 18.5019C0.72599 18.3993 0.714271 18.2694 0.762612 18.1561L4.7532 8.81946C4.81082 8.68469 4.94339 8.59705 5.08988 8.59705H14.5061C14.7085 8.59705 14.8724 8.76087 14.8724 8.96327C14.8724 9.16566 14.7085 9.32949 14.5061 9.32949H5.33158L1.65399 17.9337H22.4829L18.9189 9.5961C18.8393 9.41006 18.9257 9.19496 19.1117 9.11537C19.297 9.03602 19.5129 9.12196 19.5925 9.30825L23.3746 18.1559C23.4229 18.2692 23.4112 18.3991 23.3435 18.5016C23.2757 18.6046 23.1609 18.6664 23.0379 18.6664Z" fill="#FFF279"/>
<path d="M17.0141 18.6007C16.8305 18.6007 16.672 18.463 16.6508 18.276C16.6486 18.2579 16.4147 16.4561 13.8919 16.0281C13.6573 15.9884 13.283 15.952 12.8494 15.9102C10.4619 15.6793 8.28412 15.3794 7.86419 14.263C7.59318 13.5427 7.98919 12.9936 8.30707 12.5525C8.65522 12.0695 8.76997 11.8586 8.59223 11.5556C8.47968 11.3637 8.12127 11.2075 7.77458 11.0563C7.09585 10.7604 6.16614 10.3551 6.16126 9.24427C6.16028 9.04187 6.32362 8.87732 6.52577 8.87634C6.52626 8.87634 6.52699 8.87634 6.52748 8.87634C6.72915 8.87634 6.89272 9.03919 6.8937 9.24085C6.89639 9.83169 7.33903 10.0673 8.06756 10.3849C8.52167 10.5829 8.99117 10.7875 9.22433 11.1852C9.66013 11.9284 9.22164 12.5368 8.90157 12.9809C8.60127 13.3975 8.42353 13.6697 8.54999 14.0051C8.84419 14.7871 11.5972 15.0533 12.9202 15.1814C13.3678 15.2247 13.7542 15.262 14.0145 15.3062C17.0741 15.8255 17.3676 18.0968 17.3786 18.1932C17.4016 18.3942 17.2573 18.5756 17.0563 18.5985C17.0422 18.6 17.028 18.6007 17.0141 18.6007Z" fill="#FFF279"/>
</svg>
