<svg width="16" height="21" viewBox="0 0 16 21" fill="none" xmlns="http://www.w3.org/2000/svg">
<path d="M7.90332 4.37842C5.83301 4.37842 4.15332 6.09717 4.15332 8.12842C4.15332 10.1987 5.83301 11.8784 7.90332 11.8784C9.93457 11.8784 11.6533 10.1987 11.6533 8.12842C11.6533 6.09717 9.93457 4.37842 7.90332 4.37842ZM7.90332 10.6284C6.49707 10.6284 5.40332 9.53467 5.40332 8.12842C5.40332 6.76123 6.49707 5.62842 7.90332 5.62842C9.27051 5.62842 10.4033 6.76123 10.4033 8.12842C10.4033 9.53467 9.27051 10.6284 7.90332 10.6284ZM7.90332 0.628418C3.72363 0.628418 0.40332 3.98779 0.40332 8.12842C0.40332 11.1753 1.41895 12.0347 7.12207 20.2378C7.47363 20.7847 8.29395 20.7847 8.64551 20.2378C14.3486 12.0347 15.4033 11.1753 15.4033 8.12842C15.4033 3.98779 12.0439 0.628418 7.90332 0.628418ZM7.90332 19.144C2.43457 11.2925 1.65332 10.6675 1.65332 8.12842C1.65332 6.48779 2.27832 4.92529 3.4502 3.71436C4.66113 2.54248 6.22363 1.87842 7.90332 1.87842C9.54395 1.87842 11.1064 2.54248 12.3174 3.71436C13.4893 4.92529 14.1533 6.48779 14.1533 8.12842C14.1533 10.6675 13.333 11.2925 7.90332 19.144Z" fill="white"/>
</svg>
