<svg width="80" height="80" viewBox="0 0 80 80" fill="none" xmlns="http://www.w3.org/2000/svg">
<circle cx="40" cy="40" r="40" fill="#F5F5F5"/>
<path d="M58.9918 49.2998C58.904 46.7131 58.1267 43.5961 56.8029 40.5234C53.8933 33.7676 49.5473 29.6667 46.6956 30.9884L45.0381 31.7551V27.6794C45.0381 24.4419 39.6561 22 32.5191 22C25.3821 22 20 24.4419 20 27.6794V34.9769C20 35.0155 20.0051 35.0527 20.011 35.0898C20.0055 35.127 20 35.1642 20 35.2027C20 35.2685 20.006 35.3338 20.0101 35.3986C20.0051 35.4329 20 35.4677 20 35.5034V42.8009C20 42.8395 20.0051 42.8766 20.011 42.9138C20.0055 42.951 20 42.9881 20 43.0267C20 43.1091 20.006 43.1906 20.0129 43.2716C20.0051 43.314 20 43.3579 20 43.4026V50.6992C20 50.7378 20.0051 50.7749 20.011 50.8121C20.0055 50.8493 20 50.8864 20 50.925C20 54.1631 25.3821 56.6049 32.5191 56.6049C37.0425 56.6049 41.1665 55.5372 43.3457 53.8472C45.2905 56.4606 47.3828 58 49.1346 58C49.5349 58 49.9178 57.92 50.2763 57.7537L56.9031 54.6867C58.3455 54.0215 59.0874 52.1076 58.9918 49.2998ZM32.5191 23.4299C39.0843 23.4299 43.6592 25.6697 43.6592 27.6799C43.6592 29.6906 39.0838 31.9309 32.5191 31.9309C25.9543 31.9309 21.379 29.6906 21.379 27.6799C21.379 25.6697 25.9539 23.4299 32.5191 23.4299ZM21.379 34.9774V30.3528C23.4184 32.171 27.5406 33.3603 32.5191 33.3603C37.498 33.3603 41.6202 32.171 43.6592 30.3528V32.3935L40.0666 34.0554C38.6853 34.6958 37.9857 36.4573 37.96 38.8701C36.2969 39.246 34.4358 39.4537 32.5186 39.4537C25.9534 39.4537 21.3785 37.2139 21.3785 35.2037C21.3785 35.1651 21.3734 35.1279 21.3675 35.0908C21.3734 35.0531 21.379 35.016 21.379 34.9774ZM21.379 42.8018V37.8762C23.4184 39.6939 27.5406 40.8831 32.5191 40.8831C34.4404 40.8831 36.3236 40.6921 38.0206 40.329C38.1769 42.0967 38.6343 44.1145 39.3927 46.2457C37.3555 46.9285 35.049 47.2777 32.5191 47.2777C25.9539 47.2777 21.379 45.0379 21.379 43.0277C21.379 42.9891 21.3739 42.9519 21.3679 42.9148C21.3734 42.8776 21.379 42.8404 21.379 42.8018ZM32.5191 55.177C25.9539 55.177 21.379 52.9366 21.379 50.9265C21.379 50.8879 21.3739 50.8507 21.3679 50.8135C21.3734 50.7764 21.379 50.7392 21.379 50.7006V45.7001C23.4184 47.5178 27.5406 48.7071 32.5191 48.7071C35.2273 48.7071 37.7039 48.324 39.8992 47.5765C39.9861 47.7909 40.0762 48.0057 40.1691 48.2211C40.8875 49.8892 41.6951 51.3877 42.5445 52.6903C40.6434 54.1916 36.7286 55.177 32.5191 55.177ZM49.7146 56.4501C47.9431 57.2696 44.1051 53.8524 41.4285 47.6384C38.7519 41.4244 38.8595 36.1804 40.6282 35.3609L44.9117 33.3793C44.6746 34.2098 44.5684 35.2156 44.6079 36.3772C44.6957 38.9644 45.473 42.0814 46.7968 45.1546C48.828 49.8701 51.5574 53.284 53.9917 54.4713L49.7146 56.4501ZM56.3414 53.3836C54.5713 54.2012 50.7323 50.7859 48.0558 44.5719C46.8027 41.6626 46.0678 38.7343 45.9859 36.3267C45.9129 34.1717 46.3766 32.7018 47.2583 32.2935C47.4325 32.213 47.6264 32.1734 47.8379 32.1734C49.7735 32.1734 53.1317 35.5029 55.5449 41.1061C56.7979 44.0149 57.5329 46.9428 57.6147 49.3503C57.6868 51.5054 57.223 52.9752 56.3414 53.3836Z" fill="black"/>
</svg>
