<svg width="26" height="26" viewBox="0 0 26 26" fill="none" xmlns="http://www.w3.org/2000/svg">
<path d="M21.6463 12.7935H13.8541V10.1691H17.9416C18.0194 10.1691 18.0948 10.1408 18.1566 10.0885L21.8614 6.95605C21.9491 6.88191 22.0005 6.76665 22 6.64463C21.9995 6.52261 21.9472 6.40788 21.859 6.33451L18.1542 3.25775C18.0927 3.20676 18.0182 3.17918 17.9416 3.17918H13.8541V1.39025C13.8541 1.17457 13.6959 1 13.5005 1C13.305 1 13.1468 1.17457 13.1468 1.39025V3.17918H5.35367C5.15821 3.17918 5 3.35375 5 3.56943V9.77889C5 9.99457 5.15821 10.1691 5.35367 10.1691H13.1468V12.7935H9.05961C8.98181 12.7935 8.90636 12.8216 8.84458 12.8741L5.13864 16.0066C5.0507 16.0807 4.99953 16.196 5 16.318C5.00047 16.44 5.05258 16.5547 5.141 16.6278L8.84694 19.7046C8.90824 19.7556 8.98298 19.7832 9.05961 19.7832H13.1468V23.2195H8.26717C8.07171 23.2195 7.9135 23.3943 7.9135 23.6097C7.9135 23.8252 8.07171 24 8.26717 24H18.7338C18.929 24 19.0874 23.8252 19.0874 23.6097C19.0874 23.3943 18.929 23.2195 18.7338 23.2195H13.8541V19.7834H21.6463C21.8416 19.7834 22 19.6086 22 19.3932V13.1837C22 12.9683 21.8416 12.7935 21.6463 12.7935ZM5.70733 3.95968H17.8234L21.0614 6.64931L17.8216 9.38864H5.70733V3.95968ZM21.2927 19.0029H9.17797L5.9384 16.3136L9.17939 13.574H21.2924V19.0029H21.2927Z" fill="#FFF279"/>
</svg>
