<svg width="77" height="76" viewBox="0 0 77 76" fill="none" xmlns="http://www.w3.org/2000/svg">
<ellipse opacity="0.24" cx="38.5" cy="38" rx="38.5" ry="38" fill="#779CE6"/>
<path fill-rule="evenodd" clip-rule="evenodd" d="M41.3186 31.1436C41.3186 35.1093 38.0734 38.2872 34.024 38.2872C29.9761 38.2872 26.7295 35.1093 26.7295 31.1436C26.7295 27.178 29.9761 24 34.024 24C38.0734 24 41.3186 27.178 41.3186 31.1436ZM23 46.3761C23 42.705 28.0783 41.7866 34.024 41.7866C40.0021 41.7866 45.0481 42.7367 45.0481 46.4106C45.0481 50.0816 39.9697 51 34.024 51C28.046 51 23 50.0499 23 46.3761ZM44.2601 31.2731C44.2601 33.2926 43.6408 35.177 42.5546 36.7422C42.4417 36.9032 42.5414 37.1202 42.7381 37.1547C43.0111 37.1992 43.2914 37.2266 43.5776 37.2324C46.4251 37.3056 48.9803 35.5104 49.6862 32.8068C50.7328 28.7951 47.6623 25.1931 43.7509 25.1931C43.3267 25.1931 42.9202 25.2363 42.5239 25.3153C42.4696 25.3268 42.4108 25.3527 42.3815 25.3987C42.3433 25.4576 42.3712 25.5338 42.4094 25.5841C43.585 27.1982 44.2601 29.1631 44.2601 31.2731ZM48.976 40.0534C50.8898 40.4199 52.1476 41.166 52.6687 42.2541C53.1104 43.1453 53.1104 44.1801 52.6687 45.0713C51.8717 46.7558 49.3003 47.2977 48.3008 47.437C48.0938 47.4659 47.9279 47.2934 47.95 47.0892C48.4607 42.4207 44.3996 40.2072 43.3487 39.6984C43.3046 39.674 43.2944 39.6395 43.2988 39.6165C43.3018 39.6021 43.3208 39.5792 43.3546 39.5748C45.6281 39.5317 48.0733 39.8379 48.976 40.0534Z" fill="#779CE6"/>
</svg>
