<svg width="16" height="18" viewBox="0 0 16 18" fill="none" xmlns="http://www.w3.org/2000/svg">
<path d="M11.1786 10.125C10.1429 10.125 9.67857 10.6875 8 10.6875C6.28571 10.6875 5.82143 10.125 4.78571 10.125C2.14286 10.125 0 12.2695 0 14.8711V16.3125C0 17.2617 0.75 18 1.71429 18H14.2857C15.2143 18 16 17.2617 16 16.3125V14.8711C16 12.2695 13.8214 10.125 11.1786 10.125ZM14.8571 16.3125C14.8571 16.6289 14.5714 16.875 14.2857 16.875H1.71429C1.39286 16.875 1.14286 16.6289 1.14286 16.3125V14.8711C1.14286 12.8672 2.75 11.25 4.78571 11.25C5.5 11.25 6.17857 11.8125 8 11.8125C9.78572 11.8125 10.5 11.25 11.1786 11.25C13.2143 11.25 14.8571 12.8672 14.8571 14.8711V16.3125ZM8 9C10.5 9 12.5714 6.99609 12.5714 4.5C12.5714 2.03906 10.5 0 8 0C5.46429 0 3.42857 2.03906 3.42857 4.5C3.42857 6.99609 5.46429 9 8 9ZM8 1.125C9.85714 1.125 11.4286 2.67188 11.4286 4.5C11.4286 6.36328 9.85714 7.875 8 7.875C6.10714 7.875 4.57143 6.36328 4.57143 4.5C4.57143 2.67188 6.10714 1.125 8 1.125Z" fill="#235784"/>
</svg>
