<svg width="80" height="80" viewBox="0 0 80 80" fill="none" xmlns="http://www.w3.org/2000/svg">
<circle cx="40" cy="40" r="40" fill="#F5F5F5"/>
<path d="M44.5312 37.0006C44.5337 36.9317 44.528 36.8628 44.5154 36.7945C44.5116 36.7749 44.5084 36.7553 44.5033 36.7357C44.4837 36.6579 44.4578 36.5808 44.4174 36.5075C44.3763 36.4335 44.325 36.3697 44.2688 36.3115C44.2555 36.2976 44.2422 36.2856 44.2283 36.2723C44.1746 36.223 44.1171 36.1794 44.0551 36.1433C44.0475 36.1389 44.0412 36.1338 44.0336 36.1294C43.9634 36.0915 43.8888 36.0649 43.8111 36.046C43.7927 36.0415 43.775 36.039 43.7561 36.0358C43.689 36.0238 43.6214 36.0181 43.5525 36.0207C43.5417 36.0213 43.5316 36.0175 43.5215 36.0181L26.619 37.1757C26.2321 37.2023 25.9008 37.4615 25.7813 37.8301C25.6625 38.1987 25.7794 38.6033 26.0772 38.8511L31.6869 43.5144L32.627 50.7483C32.677 51.1327 32.9558 51.4475 33.3313 51.5449C33.4097 51.5645 33.4894 51.5746 33.5678 51.5746C33.8649 51.5746 34.1513 51.4343 34.3321 51.1871L44.351 37.5254C44.3573 37.5165 44.3598 37.5064 44.3655 37.4975C44.4047 37.4406 44.4363 37.3799 44.4616 37.3167C44.4686 37.299 44.4762 37.2826 44.4825 37.2642C44.5071 37.1896 44.5242 37.1125 44.5305 37.0341C44.5324 37.0227 44.5312 37.012 44.5312 37.0006ZM39.3684 38.2044L32.689 41.8807L29.1112 38.9068L39.3684 38.2044ZM34.2038 48.1568L33.6038 43.5429L40.2839 39.8658L34.2038 48.1568Z" fill="black"/>
<path d="M69.6612 40.0218C69.679 39.8454 69.6486 39.662 69.5607 39.4926L67.8019 36.0957C67.5604 35.6297 66.9863 35.4483 66.5242 35.6898C66.5242 35.6898 66.5242 35.6898 66.5235 35.6898C66.2776 35.8181 65.9969 35.8409 65.7307 35.7568C65.4658 35.6727 65.2502 35.4906 65.1232 35.2441C64.9954 34.9969 64.9714 34.7149 65.0555 34.45C65.1396 34.1857 65.321 33.9701 65.5676 33.8431C65.9172 33.6629 66.1069 33.2956 66.0778 32.9263C66.0772 32.9219 66.0759 32.9175 66.0753 32.9131C66.0702 32.8562 66.0607 32.7993 66.0449 32.743C66.038 32.7177 66.0247 32.6931 66.0152 32.6678C66.0026 32.6336 65.9918 32.5989 65.9748 32.5653C65.9748 32.5653 65.9748 32.5653 65.9748 32.5647V32.5641L64.2172 29.1678C63.9763 28.7031 63.4048 28.521 62.9395 28.7613C62.4299 29.0243 61.7996 28.8251 61.5353 28.3168C61.2717 27.8066 61.4714 27.1775 61.981 26.9139C62.4457 26.6737 62.6278 26.1009 62.3875 25.6362C62.3743 25.6109 62.3572 25.59 62.342 25.5666C62.3325 25.5445 62.3268 25.5217 62.3154 25.5003L60.5572 22.104C60.3164 21.638 59.7436 21.4559 59.2795 21.6974C59.2795 21.6974 59.2795 21.6974 59.2789 21.6974C59.033 21.8251 58.7516 21.8492 58.4861 21.7644C58.2212 21.6804 58.005 21.4983 57.8785 21.2523C57.6149 20.7421 57.814 20.1131 58.323 19.8494C58.7883 19.6086 58.9697 19.0364 58.7295 18.5717C58.7244 18.5616 58.7162 18.5534 58.7112 18.5433C58.7048 18.53 58.7017 18.5161 58.6953 18.5028L56.9346 15.1065C56.836 14.9162 56.6805 14.7765 56.5015 14.6905C56.2271 14.5198 55.8737 14.4914 55.5646 14.65L13.6722 36.3941C12.2649 37.1249 11.7142 38.8635 12.4432 40.2677L14.8747 44.9784C15.0366 45.292 15.3603 45.4905 15.7137 45.4918C17.4586 45.4994 19.098 46.1815 20.3295 47.4131C22.5859 49.6689 22.8881 53.2049 21.0477 55.8204C20.8442 56.1093 20.8183 56.488 20.9807 56.8016L23.3933 61.4706C23.7454 62.1546 24.3429 62.6598 25.0769 62.8931C25.3652 62.9854 25.6598 63.0303 25.9538 63.0303C26.4084 63.0303 26.8591 62.9215 27.2739 62.7059L69.1586 40.9663C69.5152 40.7811 69.7023 40.3998 69.6612 40.0218ZM26.3995 61.0223C26.1681 61.1418 25.902 61.1652 25.6522 61.0855C25.4025 61.0059 25.1989 60.8346 25.0788 60.6006L22.9191 56.4216C24.9277 53.1088 24.4415 48.8425 21.6699 46.0721C20.2208 44.6225 18.3349 43.7639 16.3067 43.6172L14.1274 39.3952C13.879 38.9173 14.0667 38.3262 14.546 38.0771L55.6455 16.7465L56.6868 18.7544C55.8459 19.6364 55.6019 20.9824 56.1924 22.1242C56.5521 22.8209 57.1628 23.3355 57.9114 23.5732C58.2047 23.6662 58.505 23.7123 58.8041 23.7123C58.9489 23.7123 59.0924 23.6978 59.2353 23.6763L60.3442 25.8183C59.504 26.7002 59.2599 28.0468 59.8511 29.1893C60.3733 30.1958 61.4019 30.7736 62.4653 30.7736C62.6082 30.7736 62.7511 30.7591 62.8946 30.7382L63.9327 32.7436C63.6267 33.0629 63.3864 33.4422 63.2486 33.8766C63.0115 34.6239 63.0792 35.4186 63.4389 36.1153C63.7986 36.812 64.4094 37.3272 65.1579 37.5643C65.4513 37.6573 65.7516 37.7041 66.0513 37.7041C66.1954 37.7041 66.3389 37.6895 66.4818 37.668L67.5231 39.6779L26.3995 61.0223Z" fill="black"/>
</svg>
