<svg width="77" height="76" viewBox="0 0 77 76" fill="none" xmlns="http://www.w3.org/2000/svg">
<ellipse opacity="0.24" cx="38.5" cy="38" rx="38.5" ry="38" fill="#EB6077"/>
<path fill-rule="evenodd" clip-rule="evenodd" d="M38.4899 23.3145C38.7295 23.0995 39.0462 22.9868 39.3706 23.0012C46.2267 23.2065 51.9569 28.1837 52.9953 34.836C53.0019 34.8757 53.0019 34.9162 52.9953 34.9559C53.0177 35.2706 52.9113 35.5811 52.6997 35.8187C52.4882 36.0565 52.1888 36.2015 51.8679 36.2221L40.3487 36.9817C39.9677 37.0154 39.5898 36.89 39.308 36.6364C39.0261 36.3827 38.8664 36.0242 38.868 35.6489L38.0937 24.334V24.1474C38.1079 23.8292 38.2503 23.5295 38.4899 23.3145ZM37.6996 39.94L47.6837 39.3003L47.7516 39.3268C48.1803 39.3339 48.5886 39.5077 48.8869 39.8101C49.1849 40.1127 49.3483 40.5189 49.3409 40.9395C48.9476 46.6726 44.7443 51.4629 39.0242 52.6969C33.3041 53.9311 27.4403 51.3127 24.6317 46.2705C23.8058 44.8182 23.284 43.2187 23.0967 41.5659C23.024 41.0761 22.9922 40.5814 23.0016 40.0866C23.0205 33.9902 27.3609 28.7282 33.4341 27.4388C34.1693 27.3012 34.9064 27.6683 35.2273 28.3318C35.3071 28.4522 35.371 28.5821 35.4173 28.7183C35.5312 30.4757 35.6494 32.2164 35.767 33.9498C35.8598 35.3188 35.9524 36.6831 36.0422 38.0475C36.0376 38.3689 36.0881 38.6887 36.1916 38.9937C36.4354 39.5937 37.0421 39.9744 37.6996 39.94Z" fill="#EB6077"/>
</svg>
