<svg width="160" height="159" viewBox="0 0 160 159" fill="none" xmlns="http://www.w3.org/2000/svg">
<path d="M79.5897 8.27539C40.3638 8.27539 8.45117 39.9892 8.45117 78.9708C8.45117 117.954 40.3638 149.666 79.5897 149.666C118.817 149.666 150.728 117.952 150.728 78.9708C150.728 39.9892 118.816 8.27539 79.5897 8.27539ZM79.5897 144.913C43.0009 144.913 13.2342 115.332 13.2342 78.9708C13.2342 42.6098 43.0009 13.0287 79.5897 13.0287C116.179 13.0287 145.945 42.6098 145.945 78.9708C145.945 115.332 116.179 144.913 79.5897 144.913Z" fill="#235784"/>
<path d="M108.842 90.4546H50.3447C49.0229 90.4546 47.9531 91.5193 47.9531 92.8312C47.9531 110.17 62.1445 124.276 79.5899 124.276C97.037 124.276 111.233 110.171 111.233 92.8312C111.233 91.5193 110.162 90.4546 108.842 90.4546ZM79.5899 119.522C65.5883 119.522 54.0563 108.816 52.843 95.2079H106.343C105.128 108.816 93.5932 119.522 79.5899 119.522Z" fill="#235784"/>
<path d="M62.2979 57.765C62.2979 51.3561 57.0493 46.1401 50.6001 46.1401C44.151 46.1401 38.9023 51.3561 38.9023 57.765C38.9023 64.174 44.151 69.39 50.6001 69.39C57.0509 69.39 62.2979 64.174 62.2979 57.765ZM43.6854 57.765C43.6854 53.9751 46.7864 50.8934 50.6001 50.8934C54.4138 50.8934 57.5149 53.9751 57.5149 57.765C57.5149 61.555 54.4122 64.6367 50.6001 64.6367C46.788 64.6367 43.6854 61.5534 43.6854 57.765Z" fill="#235784"/>
<path d="M107.252 46.1401C100.802 46.1401 95.5547 51.3561 95.5547 57.765C95.5547 64.174 100.802 69.39 107.252 69.39C113.703 69.39 118.952 64.174 118.952 57.765C118.952 51.3561 113.702 46.1401 107.252 46.1401ZM107.252 64.6367C103.439 64.6367 100.338 61.555 100.338 57.765C100.338 53.9751 103.439 50.8934 107.252 50.8934C111.066 50.8934 114.169 53.9751 114.169 57.765C114.169 61.555 111.065 64.6367 107.252 64.6367Z" fill="#235784"/>
</svg>
