<svg width="23" height="11" viewBox="0 0 23 11" fill="none" xmlns="http://www.w3.org/2000/svg">
<path d="M21.1993 3.53935H19.4779V1.81327C19.4779 1.36312 18.997 0.9995 18.4039 1L4.59609 1.008C4.00354 1.008 3.5231 1.37312 3.5231 1.82277V3.54885H1.80177C1.35801 3.55335 1 3.80594 1 4.11704V6.9855V7.18556V9.43631C1 9.74792 1.36162 10 1.80125 10L21.1993 9.986C21.641 9.986 21.9995 9.73291 21.9995 9.42181V7.17106V6.97099V4.10253C21.9979 3.79343 21.6394 3.53935 21.1993 3.53935ZM10.8413 7.32561L5.46295 7.32911C5.28739 7.32964 5.1188 7.26266 4.99422 7.1429C4.86964 7.02313 4.79928 6.86037 4.7986 6.6904V6.14822C4.79853 6.06408 4.81558 5.98075 4.84877 5.90299C4.88197 5.82523 4.93066 5.75456 4.99206 5.69502C5.05346 5.63547 5.12638 5.58822 5.20664 5.55597C5.28691 5.52371 5.37295 5.50707 5.45985 5.507L10.8382 5.504C11.0137 5.504 11.182 5.57142 11.3062 5.69146C11.4303 5.81149 11.5002 5.97433 11.5005 6.14422V6.6869C11.5006 6.77101 11.4835 6.85432 11.4503 6.93205C11.4171 7.00978 11.3684 7.08042 11.307 7.13992C11.2456 7.19942 11.1727 7.24662 11.0924 7.27883C11.0122 7.31103 10.9261 7.32761 10.8393 7.32761L10.8413 7.32561ZM17.5432 7.32211L12.1649 7.32511C11.9894 7.32511 11.8211 7.25769 11.6969 7.13766C11.5728 7.01762 11.5029 6.85478 11.5026 6.6849V6.14422C11.5025 6.06008 11.5196 5.97675 11.5528 5.89899C11.586 5.82123 11.6346 5.75056 11.696 5.69102C11.7574 5.63147 11.8304 5.58422 11.9106 5.55196C11.9909 5.5197 12.0769 5.50307 12.1638 5.503L17.5422 5.5C17.7174 5.5004 17.8853 5.56799 18.0092 5.68798C18.133 5.80798 18.2027 5.97059 18.203 6.14021V6.6829C18.203 6.85287 18.1332 7.01589 18.0092 7.13612C17.8851 7.25636 17.7167 7.32398 17.5412 7.32411L17.5432 7.32211ZM4.13734 7.74625H1.66384C1.57693 7.74651 1.49082 7.7302 1.41043 7.69824C1.33004 7.66629 1.25693 7.61931 1.19529 7.56C1.13365 7.50069 1.08467 7.43021 1.05116 7.35257C1.01766 7.27494 1.00027 7.19168 1 7.10754V4.19407C1 4.02418 1.06963 3.86123 1.19361 3.74101C1.31759 3.62079 1.48578 3.55312 1.66125 3.55285H4.13476C4.30965 3.55272 4.47748 3.61961 4.60158 3.73892C4.72568 3.85823 4.79596 4.02024 4.79705 4.18956V7.10303C4.7976 7.27301 4.72842 7.43624 4.60471 7.55685C4.48101 7.67746 4.3129 7.74559 4.13734 7.74625V7.74625ZM21.3403 7.73625H18.8668C18.7798 7.73651 18.6937 7.72018 18.6133 7.68819C18.5328 7.65621 18.4597 7.60919 18.3981 7.54982C18.3364 7.49046 18.2874 7.41992 18.254 7.34223C18.2205 7.26453 18.2032 7.18122 18.203 7.09703V4.18406C18.2029 4.09992 18.2199 4.01659 18.2531 3.93883C18.2863 3.86107 18.335 3.7904 18.3964 3.73086C18.4578 3.67132 18.5307 3.62407 18.611 3.59181C18.6913 3.55955 18.7773 3.54291 18.8642 3.54285H21.3377C21.4246 3.54272 21.5107 3.55918 21.5911 3.59129C21.6714 3.62341 21.7444 3.67055 21.806 3.73001C21.8675 3.78947 21.9163 3.86009 21.9496 3.93783C21.9829 4.01557 22 4.0989 22 4.18306V7.09653C21.9996 7.26616 21.9298 7.42872 21.8058 7.54862C21.6819 7.66851 21.5139 7.73598 21.3387 7.73625H21.3403Z" stroke="#235784" stroke-miterlimit="10"/>
</svg>
