<svg width="80" height="80" viewBox="0 0 80 80" fill="none" xmlns="http://www.w3.org/2000/svg">
<circle cx="40" cy="40" r="40" fill="#F5F5F5"/>
<path d="M56.2326 37.2563C56.2326 28.9687 49.49 22.2266 41.2029 22.2266C32.9158 22.2266 26.1731 28.9692 26.1731 37.2563C26.1731 45.5434 32.9158 52.2861 41.2029 52.2861C49.49 52.2861 56.2326 45.5434 56.2326 37.2563ZM27.767 37.2563C27.767 29.8483 33.7943 23.821 41.2023 23.821C48.6104 23.821 54.6377 29.8483 54.6377 37.2563C54.6377 44.6644 48.6104 50.6917 41.2023 50.6917C33.7943 50.6917 27.767 44.6644 27.767 37.2563Z" fill="black"/>
<path d="M64.2396 37.6009H62.2684C61.916 26.2829 52.6048 17.1826 41.2023 17.1826C29.8003 17.1826 20.4906 26.2829 20.1388 37.6009H18.0438C17.6032 37.6009 17.2466 37.9575 17.2466 38.3981V46.97C17.2466 47.4101 17.6032 47.7672 18.0438 47.7672H23.7591C24.1997 47.7672 24.5563 47.4101 24.5563 46.97V38.3981C24.5563 37.9575 24.1997 37.6009 23.7591 37.6009H21.7332C22.0845 27.1619 30.6798 18.777 41.2023 18.777C51.7263 18.777 60.3222 27.1624 60.6735 37.6009H58.5242C58.0842 37.6009 57.727 37.9575 57.727 38.3981V46.97C57.727 47.4101 58.0842 47.7672 58.5242 47.7672H60.7489C60.3785 54.9197 54.5866 60.66 47.414 60.9533V58.7669C47.414 58.3269 47.0569 57.9697 46.6168 57.9697H38.0459C37.6053 57.9697 37.2487 58.3269 37.2487 58.7669V64.4823C37.2487 64.9223 37.6053 65.2795 38.0459 65.2795H46.6168C47.0569 65.2795 47.414 64.9223 47.414 64.4823V62.5477C55.4657 62.2517 61.9708 55.7987 62.3438 47.7672H64.2396C64.6796 47.7672 65.0368 47.4101 65.0368 46.97V38.3981C65.0368 37.958 64.6796 37.6009 64.2396 37.6009ZM22.9619 46.1728H18.841V39.1953H22.9619V46.1728ZM45.8196 63.6851H38.8431V59.5641H45.8196V63.6851ZM63.4424 46.1728H59.3214V39.1953H63.4424V46.1728Z" fill="black"/>
</svg>
