<svg width="23" height="24" viewBox="0 0 23 24" fill="none" xmlns="http://www.w3.org/2000/svg">
<path d="M16.9258 0H6.07423C2.668 0 0 2.784 0 6.33832V17.6617C0 21.216 2.668 24 6.07423 24H16.9258C20.332 24 23 21.216 23 17.6617V6.33832C23 2.784 20.3313 0 16.9258 0ZM21.5161 17.6617C21.5161 20.3481 19.4995 22.4516 16.9258 22.4516H6.07423C3.50045 22.4516 1.48387 20.3474 1.48387 17.6617V6.33832C1.48387 3.65265 3.50045 1.54839 6.07423 1.54839H16.9258C19.5003 1.54839 21.5161 3.65265 21.5161 6.33832V17.6617Z" fill="#235784"/>
<path d="M18.7325 6.12778C18.4943 5.94584 18.1753 5.93036 17.9208 6.0852C17.667 6.24081 17.1046 6.31746 16.6535 6.37939C16.5601 6.39255 16.4681 6.40494 16.379 6.4181C15.7476 5.87152 14.9412 5.56494 14.1095 5.56494C12.2361 5.56494 10.6988 7.07772 10.5897 8.98069C8.89068 8.68185 7.33484 7.75746 6.23232 6.36855C6.06835 6.16107 5.81387 6.05965 5.55716 6.09449C5.30193 6.13165 5.08381 6.3043 4.98068 6.55049C4.93319 6.66352 4.51919 7.72649 4.51919 10.3557C4.51919 12.6326 6.24123 14.3056 7.42239 15.1859C6.61442 15.5691 5.68329 15.71 4.7989 15.6078C4.45316 15.5691 4.12968 15.7812 4.01542 16.1211C3.90116 16.4617 4.02729 16.8395 4.31961 17.0323C5.71445 17.9505 7.32668 18.4359 8.98268 18.4359C14.3009 18.4359 17.5194 14.0764 17.6388 9.77811C17.7917 9.54662 18.0833 9.09604 18.5759 8.30559C18.7733 7.98739 18.9387 7.30146 19.0196 6.92133C19.0841 6.62094 18.9706 6.30894 18.7325 6.12778ZM16.3004 9.07436C16.2091 9.20598 16.1594 9.36546 16.1594 9.52804C16.1594 12.5838 13.9329 16.8875 8.98342 16.8875C8.53603 16.8875 8.09235 16.8449 7.65758 16.7613C8.23777 16.5322 8.78606 16.2124 9.28984 15.8075C9.49164 15.6457 9.59922 15.3856 9.57548 15.1216C9.55174 14.8576 9.39964 14.6238 9.17187 14.5038C9.13997 14.4868 6.00381 12.7657 6.00381 10.3564C6.00381 9.54894 6.04535 8.9141 6.10026 8.43101C7.55668 9.7394 9.41003 10.5221 11.3606 10.6228C11.3754 10.6235 11.391 10.6243 11.4051 10.6235C11.8369 10.6104 12.1544 10.2798 12.1544 9.84933C12.1544 9.74249 12.1337 9.64107 12.0958 9.54817C12.0773 9.43204 12.0676 9.31514 12.0676 9.19823C12.0676 8.04856 12.9832 7.11333 14.1095 7.11333C14.6748 7.11333 15.2186 7.35488 15.6022 7.77527C15.7773 7.96572 16.0333 8.05165 16.2804 8.00133C16.4488 7.96804 16.6432 7.94172 16.8472 7.91385C16.9199 7.90378 16.9934 7.89372 17.0683 7.88288C16.5111 8.76856 16.31 9.06043 16.3004 9.07436Z" fill="#235784"/>
</svg>
