<svg width="27" height="22" viewBox="0 0 27 22" fill="none" xmlns="http://www.w3.org/2000/svg">
<path d="M24.0199 5.96869C25.0355 5.20697 25.9496 4.29291 26.6605 3.2265C25.7465 3.63275 24.6801 3.93744 23.6136 4.039C24.7308 3.37885 25.5433 2.36322 25.9496 1.09369C24.934 1.70306 23.766 2.1601 22.598 2.414C21.5824 1.3476 20.2113 0.73822 18.6879 0.73822C15.7426 0.73822 13.3558 3.12494 13.3558 6.07025C13.3558 6.4765 13.4066 6.88275 13.5082 7.289C9.09021 7.0351 5.12927 4.90228 2.48865 1.70306C2.03162 2.46478 1.77771 3.37885 1.77771 4.39447C1.77771 6.2226 2.69177 7.8476 4.16443 8.81244C3.30115 8.76166 2.43787 8.55853 1.72693 8.15228V8.20306C1.72693 10.7929 3.55505 12.9257 5.99255 13.4335C5.5863 13.5351 5.07849 13.6367 4.62146 13.6367C4.26599 13.6367 3.9613 13.5859 3.60583 13.5351C4.26599 15.6679 6.24646 17.1913 8.5824 17.2421C6.75427 18.664 4.46912 19.5273 1.98083 19.5273C1.5238 19.5273 1.11755 19.4765 0.711304 19.4257C3.04724 20.9492 5.84021 21.8124 8.88708 21.8124C18.6879 21.8124 24.0199 13.7382 24.0199 6.67963C24.0199 6.42572 24.0199 6.2226 24.0199 5.96869Z" fill="white"/>
</svg>
