<svg width="24" height="24" viewBox="0 0 24 24" fill="none" xmlns="http://www.w3.org/2000/svg">
<path d="M20.1708 4.2265C18.0887 2.09369 15.245 0.874939 12.1981 0.874939C6.00281 0.874939 0.924683 5.95306 0.924683 12.1484C0.924683 14.1796 1.48328 16.1093 2.44812 17.7851L0.873901 23.6249L6.81531 22.1015C8.49109 22.9648 10.3192 23.4726 12.1981 23.4726C18.4442 23.4726 23.6239 18.3945 23.6239 12.1992C23.6239 9.15228 22.3036 6.35931 20.1708 4.2265ZM12.1981 21.5429C10.5223 21.5429 8.89734 21.0859 7.42468 20.2226L7.12 20.0195L3.56531 20.9843L4.53015 17.5312L4.27625 17.1757C3.36218 15.6523 2.85437 13.9257 2.85437 12.1484C2.85437 7.01947 7.06921 2.80463 12.2489 2.80463C14.7372 2.80463 17.0731 3.76947 18.8505 5.54681C20.6278 7.32416 21.6942 9.6601 21.6942 12.1992C21.6942 17.3281 17.3778 21.5429 12.1981 21.5429ZM17.3778 14.5351C17.0731 14.3828 15.702 13.7226 15.4481 13.621C15.1942 13.5195 14.9911 13.4687 14.788 13.7734C14.6356 14.0273 14.077 14.6874 13.9247 14.8906C13.7216 15.0429 13.5692 15.0937 13.3153 14.9413C11.6395 14.1288 10.5731 13.4687 9.45593 11.5898C9.15125 11.082 9.76062 11.1328 10.2684 10.0663C10.37 9.86322 10.3192 9.71088 10.2684 9.55853C10.2177 9.40619 9.60828 8.0351 9.40515 7.4765C9.15125 6.91791 8.94812 6.96869 8.745 6.96869C8.59265 6.96869 8.38953 6.96869 8.23718 6.96869C8.03406 6.96869 7.72937 7.01947 7.47546 7.32416C7.22156 7.62885 6.51062 8.289 6.51062 9.6601C6.51062 11.082 7.47546 12.4023 7.62781 12.6054C7.78015 12.7578 9.60828 15.6015 12.452 16.8203C14.2294 17.6328 14.9403 17.6835 15.8544 17.5312C16.3622 17.4804 17.4794 16.871 17.7333 16.2109C17.9872 15.5507 17.9872 14.9921 17.8856 14.8906C17.8348 14.7382 17.6317 14.6874 17.3778 14.5351Z" fill="white"/>
</svg>
